# Blender v3.3.1 OBJ File: 'cobra-porco-tartaruga.blend'
# www.blender.org
mtllib Porco-pataDD.mtl
o Porco-pataDD_Cubo.002
v -5.591393 1.568145 1.662735
v -5.458740 0.230676 1.665045
v -5.878708 1.560334 1.633860
v -5.930211 0.228506 1.628971
v -5.610250 1.568145 1.926022
v -5.477598 0.230676 1.928331
v -5.897566 1.560334 1.897147
v -5.949069 0.228506 1.892258
v -5.470940 0.528748 1.625979
v -5.954595 0.521515 1.583656
v -5.979739 0.521515 1.934705
v -5.496083 0.528748 1.977028
v -5.747463 1.466764 1.603279
v -5.707173 0.211367 1.601531
v -5.772607 1.466764 1.954328
v -5.732317 0.211367 1.952580
v -5.767548 0.525132 2.041956
v -5.729832 0.525132 1.515383
v -5.940277 1.271909 1.584847
v -5.965420 1.271909 1.935896
v -5.528984 1.280589 1.976373
v -5.503839 1.280589 1.625325
v -5.737890 1.246532 1.515732
v -5.775605 1.246532 2.042306
v -5.656720 1.517038 1.619936
v -5.451150 0.309841 1.631684
v -5.848913 0.214005 1.598500
v -5.909044 1.496498 1.594741
v -5.892024 1.586722 1.764930
v -5.953722 0.216662 1.759448
v -5.933111 1.496498 1.930757
v -5.850765 1.512160 1.938596
v -5.575313 0.214971 1.956863
v -5.569065 1.505029 1.965891
v -5.594214 1.595104 1.795162
v -5.444213 0.218558 1.797956
v -5.485002 0.902565 1.626452
v -5.948789 0.305403 1.591327
v -5.972856 0.305403 1.927343
v -5.475218 0.309841 1.967699
v -5.441400 0.529291 1.805096
v -5.618954 0.527211 2.043781
v -5.997604 0.520973 1.756424
v -5.860912 0.523052 1.514812
v -5.826698 1.512160 1.602580
v -5.551246 0.214971 1.620847
v -5.680787 1.517038 1.955951
v -5.872980 0.214005 1.934516
v -5.897056 0.523052 2.019445
v -5.582810 0.527211 1.539148
v -5.740319 1.419638 1.526595
v -5.776463 1.419637 2.031228
v -5.714318 0.184030 1.776753
v -5.760651 1.476562 1.778763
v -5.752290 0.305260 2.030179
v -5.716145 0.305260 1.525546
v -5.953710 0.894066 1.583855
v -5.978854 0.894066 1.934905
v -5.510145 0.902565 1.977501
v -5.544997 1.505029 1.629875
v -5.736266 0.894601 1.515729
v -5.773983 0.894601 2.042302
v -5.892001 1.255181 2.020295
v -5.604905 1.260171 1.538936
v -5.855856 1.255181 1.515662
v -5.980051 1.278687 1.757734
v -5.641051 1.260171 2.043570
v -5.478149 1.288669 1.804283
v -5.853391 0.304590 1.525011
v -5.991636 0.303921 1.756779
v -5.598018 0.307110 2.031964
v -5.420694 0.308961 1.803025
v -5.675476 1.535323 1.787498
v -5.553701 0.188450 1.788577
v -5.456622 0.904131 1.805587
v -5.629745 0.898437 2.044202
v -5.995636 0.894357 1.756601
v -5.863107 0.893551 1.515076
v -5.593600 0.898437 1.539569
v -5.899251 0.893550 2.019709
v -5.859601 0.188048 1.766241
v -5.833422 1.530388 1.770944
v -5.888021 0.304590 2.008516
v -5.563387 0.307110 1.548459
v -5.873524 1.448891 2.011030
v -5.628621 1.453854 1.547856
v -5.838892 1.448891 1.527525
v -5.942471 1.517839 1.760559
v -5.663252 1.453853 2.031361
v -5.526271 1.527619 1.800756
vt 0.568170 0.128308
vt 0.604743 0.128308
vt 0.604743 0.194460
vt 0.568170 0.194860
vt 0.625000 0.128308
vt 0.625000 0.192462
vt 0.625000 0.256616
vt 0.604743 0.274197
vt 0.568170 0.275795
vt 0.604743 0.378251
vt 0.568170 0.378239
vt 0.625000 0.378308
vt 0.625000 0.500000
vt 0.605466 0.481914
vt 0.568170 0.480269
vt 0.568170 0.625000
vt 0.609082 0.625000
vt 0.608359 0.689555
vt 0.568170 0.689966
vt 0.659718 0.625000
vt 0.656825 0.687911
vt 0.625000 0.750000
vt 0.605466 0.768087
vt 0.568170 0.769731
vt 0.605196 0.873747
vt 0.569983 0.874158
vt 0.625000 0.871692
vt 0.625000 0.993384
vt 0.607462 0.993384
vt 0.589923 0.993384
vt 0.751032 0.625000
vt 0.750308 0.687500
vt 0.868384 0.625000
vt 0.868384 0.687500
vt 0.868384 0.750000
vt 0.746692 0.750000
vt 0.443707 0.769731
vt 0.506829 0.769731
vt 0.506879 0.874158
vt 0.442092 0.874158
vt 0.507126 0.993384
vt 0.424329 0.993384
vt 0.443707 0.625000
vt 0.506829 0.625000
vt 0.506829 0.689966
vt 0.443707 0.689966
vt 0.443707 0.275795
vt 0.506829 0.275795
vt 0.506829 0.378239
vt 0.443707 0.378239
vt 0.506829 0.480269
vt 0.443707 0.480269
vt 0.443707 0.128308
vt 0.506829 0.128308
vt 0.506829 0.194860
vt 0.443707 0.194860
vt 0.424329 0.000000
vt 0.507126 0.000000
vt 0.506879 0.064154
vt 0.442092 0.064154
vt 0.589923 0.000000
vt 0.569983 0.064154
vt 0.506829 0.560034
vt 0.443707 0.560034
vt 0.568170 0.560034
vt 0.746692 0.500000
vt 0.750308 0.562500
vt 0.656825 0.562089
vt 0.868384 0.500000
vt 0.868384 0.562500
vt 0.608359 0.560445
vt 0.607462 0.000000
vt 0.605196 0.064154
vt 0.625000 0.000000
vt 0.625000 0.064154
vt 0.131616 0.625000
vt 0.249265 0.625000
vt 0.249939 0.687500
vt 0.131616 0.687500
vt 0.342658 0.625000
vt 0.345353 0.687911
vt 0.375000 0.750000
vt 0.253308 0.750000
vt 0.131616 0.750000
vt 0.131616 0.500000
vt 0.253308 0.500000
vt 0.249939 0.562500
vt 0.131616 0.562500
vt 0.375000 0.500000
vt 0.345353 0.562089
vt 0.401413 0.481914
vt 0.398718 0.560445
vt 0.398044 0.625000
vt 0.375000 0.000000
vt 0.399665 0.000000
vt 0.401683 0.064154
vt 0.375000 0.064154
vt 0.402087 0.128308
vt 0.375000 0.128308
vt 0.402087 0.194460
vt 0.375000 0.192462
vt 0.402087 0.274197
vt 0.375000 0.256616
vt 0.402087 0.378251
vt 0.375000 0.378308
vt 0.398718 0.689555
vt 0.401413 0.768086
vt 0.401683 0.873747
vt 0.375000 0.871692
vt 0.399665 0.993384
vt 0.375000 0.993384
vn 0.0805 -0.0183 -0.9966
vn 0.0737 -0.3437 -0.9362
vn -0.2635 -0.3274 -0.9074
vn -0.3091 -0.0254 -0.9507
vn 0.0423 -0.8598 -0.5090
vn -0.1867 -0.8351 -0.5174
vn -0.6009 -0.7000 -0.3858
vn -0.7793 -0.2636 -0.5685
vn -0.8286 -0.0210 -0.5594
vn -0.9771 -0.2007 -0.0703
vn -0.9973 -0.0138 -0.0719
vn -0.6701 -0.7407 -0.0483
vn -0.6505 -0.7011 0.2919
vn -0.8551 -0.2665 0.4448
vn -0.9043 -0.0225 0.4263
vn -0.0918 -0.0298 0.9953
vn -0.0777 -0.3632 0.9285
vn 0.2103 -0.3088 0.9276
vn 0.2341 -0.0107 0.9722
vn -0.0356 -0.8665 0.4979
vn 0.1749 -0.8243 0.5385
vn 0.6114 -0.6521 0.4482
vn 0.7366 -0.1765 0.6529
vn 0.7641 0.0357 0.6441
vn 0.9953 -0.0635 0.0729
vn 0.9953 0.0636 0.0729
vn 0.7281 -0.6837 0.0493
vn 0.6758 -0.6404 -0.3650
vn 0.8297 -0.1508 -0.5375
vn 0.8540 0.0469 -0.5181
vn 0.0015 -1.0000 -0.0006
vn 0.1390 -0.9903 0.0086
vn 0.2625 -0.8115 -0.5220
vn 0.7842 0.1038 0.6118
vn 0.7777 0.0339 0.6277
vn 0.9963 0.0459 0.0724
vn 0.9897 0.1236 0.0718
vn 0.8655 0.0365 -0.4996
vn 0.8695 0.1044 -0.4827
vn -0.0984 0.0300 0.9947
vn -0.0956 -0.0007 0.9954
vn 0.2476 0.0095 0.9688
vn 0.2587 0.0527 0.9645
vn -0.8444 0.0852 -0.5288
vn -0.8389 0.0159 -0.5440
vn -0.9972 0.0210 -0.0720
vn -0.9928 0.0955 -0.0717
vn -0.9130 0.0156 0.4076
vn -0.9165 0.0851 0.3910
vn 0.0864 0.0307 -0.9958
vn 0.0844 0.0022 -0.9964
vn -0.3216 0.0053 -0.9469
vn -0.3329 0.0498 -0.9416
vn 0.4095 0.0136 -0.9122
vn 0.4222 0.0547 -0.9048
vn 0.3920 0.0047 -0.9200
vn -0.4812 0.0041 0.8766
vn -0.4943 0.0504 0.8678
vn -0.4640 -0.0314 0.8853
vn -0.1458 -0.9893 -0.0108
vn -0.2622 -0.8385 0.4777
vn -0.4036 -0.3379 0.8502
vn 0.3562 -0.2813 -0.8911
vn 0.0496 0.9081 -0.4159
vn 0.0145 0.9999 0.0011
vn -0.5477 0.8357 -0.0393
vn -0.2593 0.8403 -0.4761
vn -0.0361 0.9079 0.4177
vn -0.3420 0.8332 0.4346
vn 0.0633 0.9194 0.3882
vn 0.1124 0.9936 0.0088
vn 0.1228 0.9208 -0.3702
vn -0.0887 0.9250 -0.3696
vn -0.1182 0.9929 -0.0094
vn 0.6108 0.7906 0.0440
vn 0.3378 0.8285 -0.4467
vn -0.1445 0.9264 0.3479
vn 0.2483 0.8372 0.4873
vn -0.7529 0.4562 0.4744
vn -0.3128 0.4319 0.8459
vn -0.0950 0.3938 0.9143
vn 0.7023 0.4825 -0.5234
vn 0.2440 0.4301 -0.8692
vn 0.0824 0.3947 -0.9151
vn -0.1564 0.4261 -0.8910
vn -0.6648 0.4600 -0.5886
vn -0.9243 0.3756 -0.0672
vn 0.0881 0.4238 0.9015
vn 0.6099 0.4839 0.6276
vn 0.8853 0.4606 0.0647
usemtl Material.001
s 1
f 18/1/1 56/2/2 69/3/3 44/4/4
f 56/2/2 14/5/5 27/6/6 69/3/3
f 69/3/3 27/6/6 4/7/7 38/8/8
f 44/4/4 69/3/3 38/8/8 10/9/9
f 10/9/9 38/8/8 70/10/10 43/11/11
f 38/8/8 4/7/7 30/12/12 70/10/10
f 70/10/10 30/12/12 8/13/13 39/14/14
f 43/11/11 70/10/10 39/14/14 11/15/15
f 17/16/16 55/17/17 71/18/18 42/19/19
f 55/17/17 16/20/20 33/21/21 71/18/18
f 71/18/18 33/21/21 6/22/22 40/23/23
f 42/19/19 71/18/18 40/23/23 12/24/24
f 12/24/24 40/23/23 72/25/25 41/26/26
f 40/23/23 6/22/22 36/27/27 72/25/25
f 72/25/25 36/27/27 2/28/28 26/29/29
f 41/26/26 72/25/25 26/29/29 9/30/30
f 16/20/20 53/31/31 74/32/32 33/21/21
f 53/31/31 14/33/5 46/34/33 74/32/32
f 74/32/32 46/34/33 2/35/28 36/36/27
f 33/21/21 74/32/32 36/36/27 6/22/22
f 21/37/34 59/38/35 75/39/36 68/40/37
f 59/38/35 12/24/24 41/26/26 75/39/36
f 75/39/36 41/26/26 9/30/30 37/41/38
f 68/40/37 75/39/36 37/41/38 22/42/39
f 24/43/40 62/44/41 76/45/42 67/46/43
f 62/44/41 17/16/16 42/19/19 76/45/42
f 76/45/42 42/19/19 12/24/24 59/38/35
f 67/46/43 76/45/42 59/38/35 21/37/34
f 19/47/44 57/48/45 77/49/46 66/50/47
f 57/48/45 10/9/9 43/11/11 77/49/46
f 77/49/46 43/11/11 11/15/15 58/51/48
f 66/50/47 77/49/46 58/51/48 20/52/49
f 23/53/50 61/54/51 78/55/52 65/56/53
f 61/54/51 18/1/1 44/4/4 78/55/52
f 78/55/52 44/4/4 10/9/9 57/48/45
f 65/56/53 78/55/52 57/48/45 19/47/44
f 22/57/39 37/58/38 79/59/54 64/60/55
f 37/58/38 9/61/30 50/62/56 79/59/54
f 79/59/54 50/62/56 18/1/1 61/54/51
f 64/60/55 79/59/54 61/54/51 23/53/50
f 20/52/49 58/51/48 80/63/57 63/64/58
f 58/51/48 11/15/15 49/65/59 80/63/57
f 80/63/57 49/65/59 17/16/16 62/44/41
f 63/64/58 80/63/57 62/44/41 24/43/40
f 8/13/13 30/66/12 81/67/60 48/68/61
f 30/66/12 4/69/7 27/70/6 81/67/60
f 81/67/60 27/70/6 14/33/5 53/31/31
f 48/68/61 81/67/60 53/31/31 16/20/20
f 11/15/15 39/14/14 83/71/62 49/65/59
f 39/14/14 8/13/13 48/68/61 83/71/62
f 83/71/62 48/68/61 16/20/20 55/17/17
f 49/65/59 83/71/62 55/17/17 17/16/16
f 9/61/30 26/72/29 84/73/63 50/62/56
f 26/72/29 2/74/28 46/75/33 84/73/63
f 84/73/63 46/75/33 14/5/5 56/2/2
f 50/62/56 84/73/63 56/2/2 18/1/1
usemtl Materiais.001
f 13/76/64 54/77/65 73/78/66 25/79/67
f 54/77/65 15/80/68 47/81/69 73/78/66
f 73/78/66 47/81/69 5/82/70 35/83/71
f 25/79/67 73/78/66 35/83/71 1/84/72
f 3/85/73 29/86/74 82/87/75 45/88/76
f 29/86/74 7/89/77 32/90/78 82/87/75
f 82/87/75 32/90/78 15/80/68 54/77/65
f 45/88/76 82/87/75 54/77/65 13/76/64
f 7/89/77 31/91/79 85/92/80 32/90/78
f 31/91/79 20/52/49 63/64/58 85/92/80
f 85/92/80 63/64/58 24/43/40 52/93/81
f 32/90/78 85/92/80 52/93/81 15/80/68
f 1/94/72 60/95/82 86/96/83 25/97/67
f 60/95/82 22/57/39 64/60/55 86/96/83
f 86/96/83 64/60/55 23/53/50 51/98/84
f 25/97/67 86/96/83 51/98/84 13/99/64
f 13/99/64 51/98/84 87/100/85 45/101/76
f 51/98/84 23/53/50 65/56/53 87/100/85
f 87/100/85 65/56/53 19/47/44 28/102/86
f 45/101/76 87/100/85 28/102/86 3/103/73
f 3/103/73 28/102/86 88/104/87 29/105/74
f 28/102/86 19/47/44 66/50/47 88/104/87
f 88/104/87 66/50/47 20/52/49 31/91/79
f 29/105/74 88/104/87 31/91/79 7/89/77
f 15/80/68 52/93/81 89/106/88 47/81/69
f 52/93/81 24/43/40 67/46/43 89/106/88
f 89/106/88 67/46/43 21/37/34 34/107/89
f 47/81/69 89/106/88 34/107/89 5/82/70
f 5/82/70 34/107/89 90/108/90 35/109/71
f 34/107/89 21/37/34 68/40/37 90/108/90
f 90/108/90 68/40/37 22/42/39 60/110/82
f 35/109/71 90/108/90 60/110/82 1/111/72
