# Blender v3.3.1 OBJ File: 'cobra-porco-tartaruga.blend'
# www.blender.org
mtllib Porco-orelhas.mtl
o Porco-orelha_Cubo.006
v -6.303521 -2.637502 -0.057148
v -6.022756 -2.425757 0.017723
v -6.244705 -2.699759 0.470652
v -5.985621 -2.466715 0.386738
v -6.121118 -2.728677 -0.070092
v -5.957200 -2.467277 0.002117
v -6.071774 -2.783288 0.424285
v -5.920572 -2.508235 0.378205
v -6.324880 -2.766459 0.435679
v -6.376757 -2.711848 -0.023333
v -6.152495 -2.868574 0.357948
v -6.189883 -2.827615 -0.007531
v -6.732558 -2.464338 0.482693
v -6.781310 -2.413246 0.056299
v -6.750843 -2.492715 0.481383
v -6.799594 -2.441624 0.054989
v -6.847742 -2.395447 0.421667
v -6.875754 -2.365047 0.154042
v -6.858622 -2.412332 0.420887
v -6.886634 -2.381931 0.153263
v -6.295665 -2.626291 0.213153
v -6.120719 -2.524946 -0.033056
v -5.995965 -2.417858 0.204295
v -6.071898 -2.578037 0.435696
v -6.114266 -2.763304 0.524759
v -5.933738 -2.468134 0.424896
v -5.980139 -2.634012 0.422398
v -6.080084 -2.766362 0.173576
v -5.916371 -2.468477 0.189856
v -6.027077 -2.581740 -0.054904
v -6.184661 -2.686826 -0.149538
v -5.978598 -2.418201 -0.030746
v -6.354483 -2.744841 0.205910
v -6.195724 -2.847679 0.412255
v -6.165619 -2.855136 0.173477
v -6.244222 -2.795407 -0.043255
v -6.172368 -2.806766 -0.061162
v -6.124946 -2.859038 0.409379
v -6.371367 -2.681658 -0.114891
v -6.298757 -2.758136 0.528461
v -6.753505 -2.433472 0.269742
v -6.778647 -2.472490 0.267941
v -6.799593 -2.417855 -0.024305
v -6.732559 -2.488106 0.561987
v -6.572866 -2.536376 0.012419
v -6.597402 -2.571252 0.014573
v -6.545409 -2.625423 0.462434
v -6.520110 -2.591367 0.467366
v -6.860782 -2.378698 0.288367
v -6.873658 -2.398681 0.287445
v -6.883709 -2.370700 0.128340
v -6.850729 -2.406679 0.447472
v -6.826692 -2.406257 0.468381
v -6.866845 -2.363381 0.099966
v -6.842036 -2.430070 0.467282
v -6.882189 -2.387195 0.098867
v -6.112825 -2.535635 0.204942
v -6.012875 -2.614625 0.516551
v -5.986411 -2.615490 0.180772
v -6.078370 -2.542490 -0.132026
v -6.133100 -2.843111 0.170578
v -5.923913 -2.393162 0.198920
v -6.222783 -2.827450 0.184088
v -6.238021 -2.761954 -0.141785
v -6.168692 -2.836806 0.512164
v -6.596300 -2.545304 -0.069628
v -6.843929 -2.380407 0.284421
v -6.575040 -2.603979 0.238243
v -6.524619 -2.619994 0.547952
v -6.543797 -2.554125 0.240657
v -6.867286 -2.388689 0.288832
v -6.826944 -2.426107 0.536371
v -6.864959 -2.413045 0.282915
v -6.881943 -2.367344 0.030965
v -4.280352 -2.637502 0.087762
v -4.568921 -2.425756 0.121855
v -4.413789 -2.699759 0.601792
v -4.658268 -2.466715 0.481810
v -4.459047 -2.728677 0.048954
v -4.631583 -2.467277 0.097065
v -4.578346 -2.783288 0.531253
v -4.721437 -2.508235 0.464094
v -4.329448 -2.766459 0.578603
v -4.212682 -2.711848 0.131670
v -4.488995 -2.868574 0.477096
v -4.399900 -2.827615 0.120678
v -3.932632 -2.464338 0.683239
v -3.823608 -2.413246 0.268146
v -3.914347 -2.492715 0.684548
v -3.805324 -2.441623 0.269455
v -3.809926 -2.395447 0.639252
v -3.744059 -2.365047 0.378351
v -3.799046 -2.412332 0.640031
v -3.733179 -2.381931 0.379131
v -4.326650 -2.626291 0.354184
v -4.464721 -2.524946 0.085556
v -4.622029 -2.417858 0.302703
v -4.579850 -2.578037 0.542564
v -4.550607 -2.763304 0.636757
v -4.715060 -2.468134 0.512185
v -4.668777 -2.634012 0.516325
v -4.534390 -2.766362 0.284287
v -4.698752 -2.468477 0.277068
v -4.554293 -2.581740 0.050585
v -4.384830 -2.686826 -0.020624
v -4.605721 -2.418201 0.067587
v -4.267401 -2.744841 0.355399
v -4.453947 -2.847679 0.537010
v -4.449714 -2.855136 0.296379
v -4.341024 -2.795406 0.093062
v -4.409594 -2.806766 0.065098
v -4.523593 -2.859038 0.524076
v -4.204968 -2.681658 0.040278
v -4.368528 -2.758136 0.666714
v -3.881549 -2.433472 0.475447
v -3.856407 -2.472490 0.477247
v -3.794024 -2.417855 0.190971
v -3.943932 -2.488106 0.761724
v -4.023670 -2.536376 0.195006
v -3.999692 -2.571252 0.200635
v -4.114984 -2.625423 0.636515
v -4.140728 -2.591367 0.637790
v -3.778022 -2.378697 0.509171
v -3.765146 -2.398681 0.510093
v -3.732521 -2.370700 0.354045
v -3.810647 -2.406679 0.665219
v -3.837419 -2.406257 0.682489
v -3.745170 -2.363381 0.323558
v -3.822075 -2.430070 0.683588
v -3.729825 -2.387195 0.324657
v -4.506453 -2.535635 0.320000
v -4.649794 -2.614625 0.614182
v -4.628133 -2.615490 0.278060
v -4.492532 -2.542490 -0.018439
v -4.481488 -2.843111 0.288875
v -4.692578 -2.393161 0.287115
v -4.394646 -2.827450 0.315030
v -4.333120 -2.761954 -0.005345
v -4.494942 -2.836806 0.632047
v -3.988782 -2.545304 0.117136
v -3.794141 -2.380407 0.502863
v -4.053702 -2.603979 0.418835
v -4.147749 -2.619994 0.718197
v -4.084971 -2.554124 0.416772
v -3.771650 -2.388689 0.510558
v -3.846859 -2.426107 0.749821
v -3.773110 -2.413045 0.504370
v -3.720392 -2.367344 0.257412
vt 0.375000 0.000000
vt 0.411944 0.124132
vt 0.504028 0.125000
vt 0.500000 0.000000
vt 0.625000 0.125000
vt 0.625000 0.000000
vt 0.503958 0.250000
vt 0.625000 0.250000
vt 0.405000 0.250000
vt 0.415417 0.375868
vt 0.504896 0.375000
vt 0.625000 0.375000
vt 0.505208 0.500000
vt 0.625000 0.500000
vt 0.416667 0.500000
vt 0.416667 0.625000
vt 0.505208 0.625000
vt 0.625000 0.625000
vt 0.505208 0.750000
vt 0.625000 0.750000
vt 0.416667 0.750000
vt 0.413194 0.874132
vt 0.504340 0.875000
vt 0.625000 0.875000
vt 0.500000 1.000000
vt 0.625000 1.000000
vt 0.375000 1.000000
vt 0.379340 0.500000
vt 0.376736 0.625000
vt 0.379340 0.750000
vt 0.340278 0.625000
vt 0.375000 0.750000
vt 0.375000 0.500000
vt 0.750000 0.625000
vt 0.750000 0.500000
vt 0.875000 0.625000
vt 0.875000 0.500000
vt 0.750000 0.750000
vt 0.875000 0.750000
vt 0.125000 0.500000
vt 0.159722 0.625000
vt 0.250000 0.625000
vt 0.250000 0.500000
vt 0.250000 0.750000
vt 0.125000 0.750000
vt 0.379340 0.871528
vt 0.375868 0.965278
vt 0.375000 0.875000
vt 0.375000 1.000000
vt 0.378090 0.283854
vt 0.379896 0.378472
vt 0.375000 0.375000
vt 0.375000 0.250000
vt 0.375000 1.000000
vt 0.375000 0.996528
vt 0.375000 1.000000
vt 0.375000 1.000000
vt 0.375000 1.000000
vt 0.375000 1.000000
vt 0.375000 0.000000
vt 0.375000 0.000000
vt 0.375000 0.119117
vt 0.375000 0.119792
vt 0.375000 0.204765
vt 0.375000 0.208333
vt 0.375000 0.117091
vt 0.375000 0.187500
vt 0.375000 0.000000
vt 0.125000 0.500000
vt 0.128472 0.625000
vt 0.125000 0.750000
vt 0.125000 0.625000
vt 0.125000 0.750000
vt 0.125000 0.500000
vt 0.378090 0.212674
vt 0.375556 0.249132
vt 0.375000 0.250000
vt 0.375000 0.244792
vt 0.375000 0.250000
vt 0.375000 0.000000
vt 0.379028 0.120660
vt 0.375000 0.000000
vt 0.375000 0.119985
vt 0.375000 0.208237
vt 0.375000 0.125000
vt 0.375000 0.250000
vt 0.375000 0.000000
vt 0.375000 0.240644
vt 0.375000 0.250000
vt 0.125000 0.500000
vt 0.125000 0.625000
vt 0.125000 0.750000
vt 0.125000 0.625000
vt 0.125000 0.750000
vt 0.125000 0.500000
vt 0.375000 1.000000
vt 0.375000 1.000000
vt 0.375000 1.000000
vt 0.375000 1.000000
vt 0.375000 1.000000
vt 0.375000 1.000000
vt 0.375000 0.000000
vt 0.500000 0.000000
vt 0.504028 0.125000
vt 0.411944 0.124132
vt 0.625000 0.000000
vt 0.625000 0.125000
vt 0.625000 0.250000
vt 0.503958 0.250000
vt 0.405000 0.250000
vt 0.504896 0.375000
vt 0.415417 0.375868
vt 0.625000 0.375000
vt 0.625000 0.500000
vt 0.505208 0.500000
vt 0.416667 0.500000
vt 0.505208 0.625000
vt 0.416667 0.625000
vt 0.625000 0.625000
vt 0.625000 0.750000
vt 0.505208 0.750000
vt 0.416667 0.750000
vt 0.504340 0.875000
vt 0.413194 0.874132
vt 0.625000 0.875000
vt 0.625000 1.000000
vt 0.500000 1.000000
vt 0.375000 1.000000
vt 0.376736 0.625000
vt 0.379340 0.500000
vt 0.379340 0.750000
vt 0.375000 0.750000
vt 0.340278 0.625000
vt 0.375000 0.500000
vt 0.750000 0.500000
vt 0.750000 0.625000
vt 0.875000 0.500000
vt 0.875000 0.625000
vt 0.875000 0.750000
vt 0.750000 0.750000
vt 0.125000 0.500000
vt 0.250000 0.500000
vt 0.250000 0.625000
vt 0.159722 0.625000
vt 0.250000 0.750000
vt 0.125000 0.750000
vt 0.379340 0.871528
vt 0.375868 0.965278
vt 0.375000 1.000000
vt 0.375000 0.875000
vt 0.379896 0.378472
vt 0.378090 0.283854
vt 0.375000 0.375000
vt 0.375000 0.250000
vt 0.375000 0.996528
vt 0.375000 1.000000
vt 0.375000 1.000000
vt 0.375000 1.000000
vt 0.375000 1.000000
vt 0.375000 1.000000
vt 0.375000 0.000000
vt 0.375000 0.119792
vt 0.375000 0.119117
vt 0.375000 0.000000
vt 0.375000 0.208333
vt 0.375000 0.204765
vt 0.375000 0.187500
vt 0.375000 0.117091
vt 0.375000 0.000000
vt 0.128472 0.625000
vt 0.125000 0.500000
vt 0.125000 0.750000
vt 0.125000 0.750000
vt 0.125000 0.625000
vt 0.125000 0.500000
vt 0.375556 0.249132
vt 0.378090 0.212674
vt 0.375000 0.250000
vt 0.375000 0.250000
vt 0.375000 0.244792
vt 0.379028 0.120660
vt 0.375000 0.000000
vt 0.375000 0.119985
vt 0.375000 0.000000
vt 0.375000 0.208237
vt 0.375000 0.250000
vt 0.375000 0.125000
vt 0.375000 0.000000
vt 0.375000 0.240644
vt 0.375000 0.250000
vt 0.125000 0.625000
vt 0.125000 0.500000
vt 0.125000 0.750000
vt 0.125000 0.750000
vt 0.125000 0.625000
vt 0.125000 0.500000
vt 0.375000 1.000000
vt 0.375000 1.000000
vt 0.375000 1.000000
vt 0.375000 1.000000
vt 0.375000 1.000000
vt 0.375000 1.000000
vn -0.1197 0.8771 -0.4652
vn -0.0678 0.9900 0.1234
vn -0.6014 0.7842 0.1529
vn -0.5725 0.7758 -0.2652
vn -0.4900 0.8595 0.1452
vn -0.5286 0.8425 -0.1037
vn -0.4952 0.6828 0.5372
vn -0.4828 0.7867 0.3847
vn -0.0195 0.7463 0.6654
vn 0.3939 -0.0939 0.9143
vn 0.3591 0.1161 0.9260
vn 0.4866 0.5723 0.6601
vn 0.8804 -0.4332 0.1932
vn 0.9751 -0.1807 0.1286
vn 0.8092 -0.5563 0.1892
vn 0.8303 -0.5387 -0.1425
vn 0.8698 -0.4738 -0.1377
vn 0.9869 -0.1183 -0.1100
vn 0.8091 -0.3622 -0.4629
vn 0.9257 -0.1263 -0.3566
vn 0.7314 -0.4857 -0.4786
vn 0.1849 0.1174 -0.9757
vn 0.1605 0.3201 -0.9337
vn 0.3574 0.7096 -0.6073
vn 0.4494 -0.8765 0.1728
vn 0.6285 -0.7634 -0.1488
vn 0.3707 -0.8083 -0.4575
vn -0.0297 -0.9937 -0.1077
vn -0.0580 -0.9779 -0.2007
vn -0.0288 -0.9995 -0.0141
vn 0.5401 0.8407 0.0383
vn -0.5194 -0.8485 0.1010
vn -0.5391 -0.8413 -0.0390
vn -0.4958 -0.8672 -0.0464
vn -0.3824 -0.9166 0.1166
vn -0.4289 -0.8729 -0.2326
vn -0.5448 -0.8194 -0.1782
vn -0.0872 -0.4699 -0.8784
vn -0.4249 -0.0996 -0.8997
vn -0.2614 -0.2931 0.9196
vn 0.0963 -0.6553 0.7492
vn -0.5507 -0.8183 -0.1649
vn -0.2718 0.0693 -0.9599
vn 0.4041 0.8978 -0.1753
vn -0.2727 0.2068 -0.9396
vn 0.4831 0.8713 -0.0861
vn -0.5772 -0.8014 -0.1568
vn 0.0856 0.9960 -0.0248
vn 0.3529 0.9331 0.0690
vn 0.5100 0.8590 0.0443
vn 0.1583 0.9609 0.2270
vn 0.5071 0.8436 0.1765
vn -0.3822 0.9127 0.1448
vn -0.3627 0.9161 0.1710
vn -0.3897 0.9133 0.1187
vn -0.5298 -0.8434 0.0890
vn -0.5440 -0.8382 -0.0382
vn -0.5580 -0.8291 -0.0358
vn -0.5544 -0.8274 0.0894
vn 0.4403 0.8516 0.2844
vn -0.1153 -0.1297 0.9848
vn -0.0926 0.0007 0.9957
vn 0.4184 0.9063 0.0601
vn -0.8406 0.5416 0.0010
vn -0.8345 0.5310 0.1469
vn -0.8030 0.5027 0.3200
vn -0.9942 -0.0372 0.1010
vn -0.9903 -0.0579 0.1261
vn -0.9967 -0.0289 0.0752
vn -0.4513 0.2513 0.8563
vn -0.8177 -0.5538 0.1571
vn -0.7051 -0.7090 -0.0068
vn -0.8691 -0.4857 -0.0932
vn -0.6179 0.4286 -0.6592
vn 0.1848 0.8771 -0.4434
vn 0.6045 0.7758 -0.1809
vn 0.5735 0.7842 0.2370
vn 0.0495 0.9900 0.1318
vn 0.5380 0.8425 -0.0273
vn 0.4643 0.8595 0.2135
vn 0.4230 0.7867 0.4496
vn 0.4136 0.6828 0.6023
vn -0.0755 0.7463 0.6614
vn -0.4874 0.1161 0.8654
vn -0.5202 -0.0939 0.8489
vn -0.5757 0.5723 0.5840
vn -0.9835 -0.1807 -0.0117
vn -0.8989 -0.4332 0.0658
vn -0.8279 -0.5563 0.0719
vn -0.8413 -0.4738 -0.2603
vn -0.8016 -0.5387 -0.2594
vn -0.9611 -0.1183 -0.2495
vn -0.8654 -0.1262 -0.4849
vn -0.7348 -0.3622 -0.5734
vn -0.6558 -0.4857 -0.5780
vn -0.0258 0.3201 -0.9470
vn -0.0439 0.1174 -0.9921
vn -0.2672 0.7096 -0.6520
vn -0.6009 -0.7634 -0.2368
vn -0.4694 -0.8765 0.1070
vn -0.3017 -0.8083 -0.5056
vn 0.0860 -0.9779 -0.1904
vn 0.0448 -0.9937 -0.1023
vn 0.0305 -0.9995 -0.0098
vn -0.5400 0.8407 -0.0391
vn 0.4997 -0.8485 0.1740
vn 0.3619 -0.9166 0.1699
vn 0.4974 -0.8672 0.0248
vn 0.5392 -0.8413 0.0382
vn 0.4576 -0.8729 -0.1691
vn 0.5646 -0.8194 -0.0987
vn 0.2115 -0.4699 -0.8570
vn 0.5488 -0.0996 -0.8300
vn -0.2021 -0.6553 0.7278
vn 0.1277 -0.2931 0.9475
vn 0.4058 0.0693 -0.9113
vn 0.5686 -0.8183 -0.0847
vn -0.3749 0.8978 -0.2311
vn -0.4659 0.8713 -0.1540
vn 0.4038 0.2068 -0.8912
vn 0.5937 -0.8014 -0.0729
vn -0.5111 0.8590 -0.0288
vn -0.3592 0.9331 0.0180
vn -0.0812 0.9960 -0.0367
vn -0.5271 0.8436 0.1024
vn -0.1891 0.9609 0.2021
vn 0.3347 0.9161 0.2210
vn 0.3576 0.9127 0.1978
vn 0.3688 0.9133 0.1730
vn 0.5439 -0.8382 0.0397
vn 0.5117 -0.8434 0.1636
vn 0.5574 -0.8291 0.0441
vn 0.5360 -0.8274 0.1675
vn -0.0263 -0.1297 0.9912
vn -0.4763 0.8516 0.2188
vn -0.0502 0.0007 0.9987
vn -0.4226 0.9063 -0.0002
vn 0.8051 0.5310 0.2644
vn 0.8319 0.5416 0.1207
vn 0.7492 0.5027 0.4312
vn 0.9623 -0.0579 0.2659
vn 0.9697 -0.0372 0.2416
vn 0.9758 -0.0289 0.2165
vn 0.3246 0.2512 0.9119
vn 0.7870 -0.5538 0.2720
vn 0.6989 -0.7090 0.0938
vn 0.8736 -0.4857 0.0316
vn 0.7055 0.4286 -0.5644
usemtl Material.001
s 1
f 1/1/1 21/2/2 57/3/3 22/4/4
f 22/4/4 57/3/3 23/5/5 2/6/6
f 57/3/3 24/7/7 4/8/8 23/5/5
f 21/2/2 3/9/9 24/7/7 57/3/3
f 3/9/9 25/10/10 58/11/11 24/7/7
f 24/7/7 58/11/11 26/12/12 4/8/8
f 58/11/11 27/13/13 8/14/14 26/12/12
f 25/10/10 7/15/15 27/13/13 58/11/11
f 7/15/15 28/16/16 59/17/17 27/13/13
f 27/13/13 59/17/17 29/18/18 8/14/14
f 59/17/17 30/19/19 6/20/20 29/18/18
f 28/16/16 5/21/21 30/19/19 59/17/17
f 5/21/21 31/22/22 60/23/23 30/19/19
f 30/19/19 60/23/23 32/24/24 6/20/20
f 60/23/23 22/25/4 2/26/6 32/24/24
f 31/22/22 1/27/1 22/25/4 60/23/23
f 7/15/15 38/28/25 61/29/26 28/16/16
f 28/16/16 61/29/26 37/30/27 5/21/21
f 61/29/26 35/31/28 12/32/29 37/30/27
f 38/28/25 11/33/30 35/31/28 61/29/26
f 8/14/14 29/18/18 62/34/31 26/35/12
f 26/35/12 62/34/31 23/36/5 4/37/8
f 62/34/31 32/38/24 2/39/6 23/36/5
f 29/18/18 6/20/20 32/38/24 62/34/31
f 9/40/32 33/41/33 63/42/34 34/43/35
f 34/43/35 63/42/34 35/31/28 11/33/30
f 63/42/34 36/44/36 12/32/29 35/31/28
f 33/41/33 10/45/37 36/44/36 63/42/34
f 5/21/21 37/30/27 64/46/38 31/22/22
f 31/22/22 64/46/38 39/47/39 1/27/1
f 64/46/38 36/48/36 10/49/37 39/47/39
f 37/30/27 12/32/29 36/48/36 64/46/38
f 3/9/9 40/50/40 65/51/41 25/10/10
f 25/10/10 65/51/41 38/28/25 7/15/15
f 65/51/41 34/52/35 11/33/30 38/28/25
f 40/50/40 9/53/32 34/52/35 65/51/41
f 10/49/37 46/54/42 66/55/43 39/47/39
f 39/47/39 66/55/43 45/56/44 1/27/1
f 66/55/43 43/57/45 14/58/46 45/56/44
f 46/54/42 16/59/47 43/57/45 66/55/43
f 14/60/46 54/61/48 67/62/49 41/63/50
f 41/63/50 67/62/49 53/64/51 13/65/52
f 67/62/49 49/66/53 17/67/54 53/64/51
f 54/61/48 18/68/55 49/66/53 67/62/49
f 9/40/32 47/69/56 68/70/57 33/41/33
f 33/41/33 68/70/57 46/71/42 10/45/37
f 68/70/57 42/72/58 16/73/47 46/71/42
f 47/69/56 15/74/59 42/72/58 68/70/57
f 3/9/9 48/75/60 69/76/61 40/50/40
f 40/50/40 69/76/61 47/77/56 9/53/32
f 69/76/61 44/78/62 15/79/59 47/77/56
f 48/75/60 13/65/52 44/78/62 69/76/61
f 1/1/1 45/80/44 70/81/63 21/2/2
f 21/2/2 70/81/63 48/75/60 3/9/9
f 70/81/63 41/63/50 13/65/52 48/75/60
f 45/80/44 14/60/46 41/63/50 70/81/63
f 18/68/55 51/82/64 71/83/65 49/66/53
f 49/66/53 71/83/65 52/84/66 17/67/54
f 71/83/65 50/85/67 19/86/68 52/84/66
f 51/82/64 20/87/69 50/85/67 71/83/65
f 13/65/52 53/64/51 72/88/70 44/78/62
f 44/78/62 72/88/70 55/89/71 15/79/59
f 72/88/70 52/84/66 19/86/68 55/89/71
f 53/64/51 17/67/54 52/84/66 72/88/70
f 15/74/59 55/90/71 73/91/72 42/72/58
f 42/72/58 73/91/72 56/92/73 16/73/47
f 73/91/72 50/93/67 20/94/69 56/92/73
f 55/90/71 19/95/68 50/93/67 73/91/72
f 16/59/47 56/96/73 74/97/74 43/57/45
f 43/57/45 74/97/74 54/98/48 14/58/46
f 74/97/74 51/99/64 18/100/55 54/98/48
f 56/96/73 20/101/69 51/99/64 74/97/74
f 75/102/75 96/103/76 131/104/77 95/105/78
f 96/103/76 76/106/79 97/107/80 131/104/77
f 131/104/77 97/107/80 78/108/81 98/109/82
f 95/105/78 131/104/77 98/109/82 77/110/83
f 77/110/83 98/109/82 132/111/84 99/112/85
f 98/109/82 78/108/81 100/113/86 132/111/84
f 132/111/84 100/113/86 82/114/87 101/115/88
f 99/112/85 132/111/84 101/115/88 81/116/89
f 81/116/89 101/115/88 133/117/90 102/118/91
f 101/115/88 82/114/87 103/119/92 133/117/90
f 133/117/90 103/119/92 80/120/93 104/121/94
f 102/118/91 133/117/90 104/121/94 79/122/95
f 79/122/95 104/121/94 134/123/96 105/124/97
f 104/121/94 80/120/93 106/125/98 134/123/96
f 134/123/96 106/125/98 76/126/79 96/127/76
f 105/124/97 134/123/96 96/127/76 75/128/75
f 81/116/89 102/118/91 135/129/99 112/130/100
f 102/118/91 79/122/95 111/131/101 135/129/99
f 135/129/99 111/131/101 86/132/102 109/133/103
f 112/130/100 135/129/99 109/133/103 85/134/104
f 82/114/87 100/135/86 136/136/105 103/119/92
f 100/135/86 78/137/81 97/138/80 136/136/105
f 136/136/105 97/138/80 76/139/79 106/140/98
f 103/119/92 136/136/105 106/140/98 80/120/93
f 83/141/106 108/142/107 137/143/108 107/144/109
f 108/142/107 85/134/104 109/133/103 137/143/108
f 137/143/108 109/133/103 86/132/102 110/145/110
f 107/144/109 137/143/108 110/145/110 84/146/111
f 79/122/95 105/124/97 138/147/112 111/131/101
f 105/124/97 75/128/75 113/148/113 138/147/112
f 138/147/112 113/148/113 84/149/111 110/150/110
f 111/131/101 138/147/112 110/150/110 86/132/102
f 77/110/83 99/112/85 139/151/114 114/152/115
f 99/112/85 81/116/89 112/130/100 139/151/114
f 139/151/114 112/130/100 85/134/104 108/153/107
f 114/152/115 139/151/114 108/153/107 83/154/106
f 84/149/111 113/148/113 140/155/116 120/156/117
f 113/148/113 75/128/75 119/157/118 140/155/116
f 140/155/116 119/157/118 88/158/119 117/159/120
f 120/156/117 140/155/116 117/159/120 90/160/121
f 88/161/119 115/162/122 141/163/123 128/164/124
f 115/162/122 87/165/125 127/166/126 141/163/123
f 141/163/123 127/166/126 91/167/127 123/168/128
f 128/164/124 141/163/123 123/168/128 92/169/129
f 83/141/106 107/144/109 142/170/130 121/171/131
f 107/144/109 84/146/111 120/172/117 142/170/130
f 142/170/130 120/172/117 90/173/121 116/174/132
f 121/171/131 142/170/130 116/174/132 89/175/133
f 77/110/83 114/152/115 143/176/134 122/177/135
f 114/152/115 83/154/106 121/178/131 143/176/134
f 143/176/134 121/178/131 89/179/133 118/180/136
f 122/177/135 143/176/134 118/180/136 87/165/125
f 75/102/75 95/105/78 144/181/137 119/182/118
f 95/105/78 77/110/83 122/177/135 144/181/137
f 144/181/137 122/177/135 87/165/125 115/162/122
f 119/182/118 144/181/137 115/162/122 88/161/119
f 92/169/129 123/168/128 145/183/138 125/184/139
f 123/168/128 91/167/127 126/185/140 145/183/138
f 145/183/138 126/185/140 93/186/141 124/187/142
f 125/184/139 145/183/138 124/187/142 94/188/143
f 87/165/125 118/180/136 146/189/144 127/166/126
f 118/180/136 89/179/133 129/190/145 146/189/144
f 146/189/144 129/190/145 93/186/141 126/185/140
f 127/166/126 146/189/144 126/185/140 91/167/127
f 89/175/133 116/174/132 147/191/146 129/192/145
f 116/174/132 90/173/121 130/193/147 147/191/146
f 147/191/146 130/193/147 94/194/143 124/195/142
f 129/192/145 147/191/146 124/195/142 93/196/141
f 90/160/121 117/159/120 148/197/148 130/198/147
f 117/159/120 88/158/119 128/199/124 148/197/148
f 148/197/148 128/199/124 92/200/129 125/201/139
f 130/198/147 148/197/148 125/201/139 94/202/143
