# Blender v3.3.1 OBJ File: 'cobra-porco-tartaruga.blend'
# www.blender.org
mtllib Cobra-olhoD.mtl
o Cobra-olhoD_Cubo.012
v 6.250935 -2.995046 1.621545
v 6.250935 -3.104105 1.621545
v 6.142137 -2.995046 1.629085
v 6.142137 -3.104105 1.629085
v 6.258474 -2.995046 1.730343
v 6.258474 -3.104105 1.730343
v 6.149676 -2.995046 1.737883
v 6.149676 -3.104105 1.737883
v 6.163711 -2.987092 1.619617
v 6.195710 -2.983096 1.613394
v 6.228261 -2.987092 1.615143
v 6.258320 -3.017223 1.613060
v 6.262030 -3.049575 1.608798
v 6.258320 -3.081928 1.613060
v 6.228261 -3.112059 1.615143
v 6.195710 -3.116054 1.613394
v 6.163711 -3.112059 1.619617
v 6.133652 -3.081928 1.621700
v 6.129390 -3.049575 1.617990
v 6.133652 -3.017223 1.621700
v 6.140208 -2.987092 1.716309
v 6.133986 -2.983096 1.684310
v 6.135735 -2.987092 1.651759
v 6.135735 -3.112059 1.651759
v 6.133986 -3.116054 1.684310
v 6.140208 -3.112059 1.716309
v 6.142291 -3.081928 1.746368
v 6.138581 -3.049575 1.750630
v 6.142291 -3.017223 1.746368
v 6.236900 -2.987092 1.739811
v 6.204901 -2.983096 1.746034
v 6.172350 -2.987092 1.744285
v 6.172350 -3.112059 1.744285
v 6.204901 -3.116054 1.746034
v 6.236900 -3.112059 1.739811
v 6.266959 -3.081928 1.737728
v 6.271221 -3.049575 1.741438
v 6.266959 -3.017223 1.737728
v 6.260403 -2.987092 1.643119
v 6.266625 -2.983096 1.675118
v 6.264876 -2.987092 1.707669
v 6.264876 -3.112059 1.707669
v 6.266625 -3.116054 1.675118
v 6.260403 -3.112059 1.643119
v 6.229207 -3.015095 1.598017
v 6.230656 -3.049575 1.592141
v 6.229207 -3.084055 1.598017
v 6.194411 -3.013243 1.594652
v 6.193976 -3.049575 1.588377
v 6.194411 -3.085907 1.594652
v 6.160412 -3.015095 1.602785
v 6.158165 -3.049575 1.597164
v 6.160412 -3.084055 1.602785
v 6.118609 -3.015095 1.650813
v 6.112732 -3.049575 1.649364
v 6.118609 -3.084055 1.650813
v 6.115244 -3.013243 1.685609
v 6.108969 -3.049575 1.686044
v 6.115244 -3.085907 1.685609
v 6.123376 -3.015095 1.719608
v 6.117755 -3.049575 1.721854
v 6.123376 -3.084055 1.719608
v 6.171404 -3.015095 1.761411
v 6.169955 -3.049575 1.767287
v 6.171404 -3.084055 1.761411
v 6.206200 -3.013243 1.764776
v 6.206635 -3.049575 1.771051
v 6.206200 -3.085907 1.764776
v 6.240199 -3.015095 1.756643
v 6.242445 -3.049575 1.762264
v 6.240199 -3.084055 1.756643
v 6.282002 -3.015095 1.708615
v 6.287879 -3.049575 1.710064
v 6.282002 -3.084055 1.708615
v 6.285367 -3.013243 1.673819
v 6.291642 -3.049575 1.673384
v 6.285367 -3.085907 1.673819
v 6.277235 -3.015095 1.639820
v 6.282856 -3.049575 1.637574
v 6.277235 -3.084055 1.639820
v 6.163524 -2.970072 1.647700
v 6.164061 -2.964310 1.682226
v 6.168292 -2.970072 1.716495
v 6.197793 -2.964310 1.643469
v 6.200305 -2.958019 1.679714
v 6.202817 -2.964310 1.715959
v 6.232319 -2.970072 1.642933
v 6.236550 -2.964310 1.677202
v 6.237087 -2.970072 1.711728
v 6.168292 -3.129078 1.716495
v 6.164061 -3.134841 1.682226
v 6.163524 -3.129078 1.647700
v 6.202817 -3.134841 1.715959
v 6.200305 -3.141131 1.679714
v 6.197793 -3.134841 1.643469
v 6.237087 -3.129078 1.711728
v 6.236550 -3.134841 1.677202
v 6.232319 -3.129078 1.642933
vt 0.469743 0.110967
vt 0.500000 0.111013
vt 0.500000 0.158437
vt 0.469743 0.158064
vt 0.530257 0.110967
vt 0.530257 0.158064
vt 0.500000 0.207950
vt 0.469593 0.206728
vt 0.530407 0.206728
vt 0.439486 0.064486
vt 0.469743 0.064486
vt 0.439486 0.110864
vt 0.500000 0.064486
vt 0.530257 0.064486
vt 0.560515 0.064486
vt 0.560515 0.110864
vt 0.560515 0.157243
vt 0.560515 0.203621
vt 0.560514 0.250000
vt 0.531750 0.259852
vt 0.500000 0.261942
vt 0.468250 0.259852
vt 0.439486 0.203621
vt 0.439485 0.250000
vt 0.439486 0.157243
vt 0.464220 0.320904
vt 0.500000 0.322091
vt 0.500000 0.386046
vt 0.458995 0.385953
vt 0.535780 0.320904
vt 0.541005 0.385953
vt 0.500000 0.450524
vt 0.453771 0.451394
vt 0.546229 0.451394
vt 0.428738 0.317874
vt 0.571262 0.317874
vt 0.582010 0.385748
vt 0.592757 0.453621
vt 0.603505 0.521495
vt 0.550260 0.514130
vt 0.500000 0.512539
vt 0.449740 0.514130
vt 0.407243 0.453621
vt 0.396495 0.521495
vt 0.417990 0.385748
vt 0.448397 0.571007
vt 0.500000 0.570001
vt 0.500000 0.624104
vt 0.448248 0.624356
vt 0.551603 0.571007
vt 0.551752 0.624356
vt 0.500000 0.676640
vt 0.448397 0.676523
vt 0.551603 0.676523
vt 0.396533 0.574069
vt 0.603468 0.574069
vt 0.603505 0.624776
vt 0.603467 0.675232
vt 0.603505 0.728505
vt 0.550260 0.728468
vt 0.500000 0.728505
vt 0.449740 0.728467
vt 0.396533 0.675232
vt 0.396495 0.728505
vt 0.396495 0.624776
vt 0.453771 0.780257
vt 0.500000 0.780257
vt 0.500000 0.832010
vt 0.458995 0.832010
vt 0.546229 0.780257
vt 0.541005 0.832010
vt 0.500000 0.883762
vt 0.464369 0.883762
vt 0.535631 0.883762
vt 0.407243 0.780257
vt 0.592757 0.780257
vt 0.582010 0.832010
vt 0.571262 0.883762
vt 0.560515 0.935515
vt 0.530257 0.935515
vt 0.500000 0.935515
vt 0.469743 0.935515
vt 0.428738 0.883762
vt 0.439486 0.935515
vt 0.417990 0.832010
vt 0.241238 0.589369
vt 0.292990 0.583995
vt 0.292990 0.625000
vt 0.241238 0.625000
vt 0.344743 0.578711
vt 0.344743 0.624972
vt 0.292990 0.666005
vt 0.241238 0.660631
vt 0.344743 0.671226
vt 0.189486 0.564485
vt 0.241238 0.553738
vt 0.189486 0.594743
vt 0.292990 0.542990
vt 0.344743 0.532243
vt 0.344743 0.717757
vt 0.292990 0.707010
vt 0.241238 0.696262
vt 0.189486 0.655257
vt 0.189486 0.685515
vt 0.189486 0.625000
vt 0.655257 0.578711
vt 0.707010 0.583995
vt 0.707010 0.625000
vt 0.655257 0.624972
vt 0.758762 0.589369
vt 0.758762 0.625000
vt 0.707010 0.666005
vt 0.655257 0.671226
vt 0.758762 0.660631
vt 0.655257 0.532243
vt 0.707010 0.542990
vt 0.758762 0.553738
vt 0.810515 0.564486
vt 0.810515 0.594743
vt 0.810515 0.625000
vt 0.810515 0.655257
vt 0.810515 0.685515
vt 0.758762 0.696262
vt 0.707010 0.707010
vt 0.655257 0.717757
vn 0.1022 0.1697 -0.9802
vn 0.1022 -0.1697 -0.9802
vn -0.2364 0.1697 -0.9567
vn -0.2364 -0.1697 -0.9567
vn 0.4144 0.4674 -0.7809
vn 0.4622 0.1678 -0.8707
vn 0.4622 -0.1678 -0.8707
vn 0.4144 -0.4674 -0.7810
vn 0.1095 -0.5213 -0.8463
vn -0.2252 -0.5213 -0.8231
vn -0.5181 -0.4674 -0.7163
vn -0.5779 -0.1678 -0.7987
vn -0.5779 0.1678 -0.7987
vn -0.5181 0.4674 -0.7163
vn -0.2252 0.5213 -0.8231
vn 0.1095 0.5213 -0.8463
vn -0.9802 0.1697 -0.1022
vn -0.9802 -0.1697 -0.1022
vn -0.9567 0.1697 0.2364
vn -0.9567 -0.1697 0.2364
vn -0.7809 0.4674 -0.4144
vn -0.8707 0.1678 -0.4622
vn -0.8707 -0.1678 -0.4622
vn -0.7809 -0.4674 -0.4144
vn -0.8463 -0.5213 -0.1095
vn -0.8231 -0.5213 0.2252
vn -0.7163 -0.4674 0.5181
vn -0.7987 -0.1678 0.5779
vn -0.7987 0.1678 0.5779
vn -0.7163 0.4674 0.5181
vn -0.8231 0.5213 0.2252
vn -0.8463 0.5213 -0.1095
vn -0.1021 0.1697 0.9802
vn -0.1021 -0.1697 0.9802
vn 0.2364 0.1697 0.9567
vn 0.2364 -0.1697 0.9567
vn -0.4144 0.4674 0.7809
vn -0.4622 0.1678 0.8707
vn -0.4622 -0.1678 0.8707
vn -0.4144 -0.4674 0.7809
vn -0.1095 -0.5213 0.8463
vn 0.2252 -0.5213 0.8231
vn 0.5181 -0.4674 0.7163
vn 0.5779 -0.1678 0.7987
vn 0.5779 0.1678 0.7987
vn 0.5181 0.4674 0.7163
vn 0.2252 0.5213 0.8231
vn -0.1095 0.5213 0.8463
vn 0.9802 0.1697 0.1022
vn 0.9802 -0.1697 0.1022
vn 0.9567 0.1697 -0.2364
vn 0.9567 -0.1697 -0.2364
vn 0.7809 0.4674 0.4144
vn 0.8707 0.1678 0.4622
vn 0.8707 -0.1678 0.4622
vn 0.7809 -0.4674 0.4144
vn 0.8463 -0.5213 0.1095
vn 0.8231 -0.5213 -0.2252
vn 0.7163 -0.4674 -0.5181
vn 0.7987 -0.1678 -0.5779
vn 0.7987 0.1678 -0.5779
vn 0.7163 0.4674 -0.5181
vn 0.8231 0.5213 -0.2252
vn 0.8463 0.5213 0.1095
vn -0.1810 0.9708 -0.1575
vn -0.1575 0.9708 0.1810
vn 0.1575 0.9708 -0.1810
vn 0.1810 0.9708 0.1575
vn -0.4986 0.7504 -0.4339
vn -0.5317 0.8367 -0.1313
vn -0.5085 0.8367 0.2034
vn -0.4339 0.7504 0.4985
vn -0.1313 0.8367 0.5317
vn 0.2034 0.8367 0.5085
vn 0.4985 0.7504 0.4339
vn 0.5317 0.8367 0.1313
vn 0.5085 0.8367 -0.2034
vn 0.4339 0.7504 -0.4986
vn 0.1313 0.8367 -0.5317
vn -0.2034 0.8367 -0.5085
vn -0.1575 -0.9708 0.1810
vn -0.1810 -0.9708 -0.1575
vn 0.1810 -0.9708 0.1575
vn 0.1575 -0.9708 -0.1810
vn -0.4339 -0.7504 0.4985
vn -0.5085 -0.8367 0.2034
vn -0.5317 -0.8367 -0.1313
vn -0.4986 -0.7504 -0.4339
vn -0.2034 -0.8367 -0.5085
vn 0.1313 -0.8367 -0.5317
vn 0.4339 -0.7504 -0.4985
vn 0.5085 -0.8367 -0.2034
vn 0.5317 -0.8367 0.1313
vn 0.4986 -0.7504 0.4339
vn 0.2034 -0.8367 0.5085
vn -0.1313 -0.8367 0.5317
usemtl None
s off
f 45/1/1 46/2/1 49/3/1 48/4/1
f 46/2/2 47/5/2 50/6/2 49/3/2
f 48/4/3 49/3/3 52/7/3 51/8/3
f 49/3/4 50/6/4 53/9/4 52/7/4
f 1/10/5 12/11/5 45/1/5 11/12/5
f 12/11/6 13/13/6 46/2/6 45/1/6
f 13/13/7 14/14/7 47/5/7 46/2/7
f 14/14/8 2/15/8 15/16/8 47/5/8
f 47/5/9 15/16/9 16/17/9 50/6/9
f 50/6/10 16/17/10 17/18/10 53/9/10
f 53/9/11 17/18/11 4/19/11 18/20/11
f 52/7/12 53/9/12 18/20/12 19/21/12
f 51/8/13 52/7/13 19/21/13 20/22/13
f 9/23/14 51/8/14 20/22/14 3/24/14
f 10/25/15 48/4/15 51/8/15 9/23/15
f 11/12/16 45/1/16 48/4/16 10/25/16
f 54/26/17 55/27/17 58/28/17 57/29/17
f 55/27/18 56/30/18 59/31/18 58/28/18
f 57/29/19 58/28/19 61/32/19 60/33/19
f 58/28/20 59/31/20 62/34/20 61/32/20
f 3/24/21 20/22/21 54/26/21 23/35/21
f 20/22/22 19/21/22 55/27/22 54/26/22
f 19/21/23 18/20/23 56/30/23 55/27/23
f 18/20/24 4/19/24 24/36/24 56/30/24
f 56/30/25 24/36/25 25/37/25 59/31/25
f 59/31/26 25/37/26 26/38/26 62/34/26
f 62/34/27 26/38/27 8/39/27 27/40/27
f 61/32/28 62/34/28 27/40/28 28/41/28
f 60/33/29 61/32/29 28/41/29 29/42/29
f 21/43/30 60/33/30 29/42/30 7/44/30
f 22/45/31 57/29/31 60/33/31 21/43/31
f 23/35/32 54/26/32 57/29/32 22/45/32
f 63/46/33 64/47/33 67/48/33 66/49/33
f 64/47/34 65/50/34 68/51/34 67/48/34
f 66/49/35 67/48/35 70/52/35 69/53/35
f 67/48/36 68/51/36 71/54/36 70/52/36
f 7/44/37 29/42/37 63/46/37 32/55/37
f 29/42/38 28/41/38 64/47/38 63/46/38
f 28/41/39 27/40/39 65/50/39 64/47/39
f 27/40/40 8/39/40 33/56/40 65/50/40
f 65/50/41 33/56/41 34/57/41 68/51/41
f 68/51/42 34/57/42 35/58/42 71/54/42
f 71/54/43 35/58/43 6/59/43 36/60/43
f 70/52/44 71/54/44 36/60/44 37/61/44
f 69/53/45 70/52/45 37/61/45 38/62/45
f 30/63/46 69/53/46 38/62/46 5/64/46
f 31/65/47 66/49/47 69/53/47 30/63/47
f 32/55/48 63/46/48 66/49/48 31/65/48
f 72/66/49 73/67/49 76/68/49 75/69/49
f 73/67/50 74/70/50 77/71/50 76/68/50
f 75/69/51 76/68/51 79/72/51 78/73/51
f 76/68/52 77/71/52 80/74/52 79/72/52
f 5/64/53 38/62/53 72/66/53 41/75/53
f 38/62/54 37/61/54 73/67/54 72/66/54
f 37/61/55 36/60/55 74/70/55 73/67/55
f 36/60/56 6/59/56 42/76/56 74/70/56
f 74/70/57 42/76/57 43/77/57 77/71/57
f 77/71/58 43/77/58 44/78/58 80/74/58
f 80/74/59 44/78/59 2/79/59 14/80/59
f 79/72/60 80/74/60 14/80/60 13/81/60
f 78/73/61 79/72/61 13/81/61 12/82/61
f 39/83/62 78/73/62 12/82/62 1/84/62
f 40/85/63 75/69/63 78/73/63 39/83/63
f 41/75/64 72/66/64 75/69/64 40/85/64
f 81/86/65 82/87/65 85/88/65 84/89/65
f 82/87/66 83/90/66 86/91/66 85/88/66
f 84/89/67 85/88/67 88/92/67 87/93/67
f 85/88/68 86/91/68 89/94/68 88/92/68
f 3/95/69 23/96/69 81/86/69 9/97/69
f 23/96/70 22/98/70 82/87/70 81/86/70
f 22/98/71 21/99/71 83/90/71 82/87/71
f 21/99/72 7/44/72 32/55/72 83/90/72
f 83/90/73 32/55/73 31/65/73 86/91/73
f 86/91/74 31/65/74 30/63/74 89/94/74
f 89/94/75 30/63/75 5/64/75 41/100/75
f 88/92/76 89/94/76 41/100/76 40/101/76
f 87/93/77 88/92/77 40/101/77 39/102/77
f 11/103/78 87/93/78 39/102/78 1/104/78
f 10/105/79 84/89/79 87/93/79 11/103/79
f 9/97/80 81/86/80 84/89/80 10/105/80
f 90/106/81 91/107/81 94/108/81 93/109/81
f 91/107/82 92/110/82 95/111/82 94/108/82
f 93/109/83 94/108/83 97/112/83 96/113/83
f 94/108/84 95/111/84 98/114/84 97/112/84
f 8/39/85 26/115/85 90/106/85 33/56/85
f 26/115/86 25/116/86 91/107/86 90/106/86
f 25/116/87 24/117/87 92/110/87 91/107/87
f 24/117/88 4/118/88 17/119/88 92/110/88
f 92/110/89 17/119/89 16/120/89 95/111/89
f 95/111/90 16/120/90 15/121/90 98/114/90
f 98/114/91 15/121/91 2/122/91 44/123/91
f 97/112/92 98/114/92 44/123/92 43/124/92
f 96/113/93 97/112/93 43/124/93 42/125/93
f 35/58/94 96/113/94 42/125/94 6/59/94
f 34/57/95 93/109/95 96/113/95 35/58/95
f 33/56/96 90/106/96 93/109/96 34/57/96
