# Blender 3.3.1
# www.blender.org
mtllib calda.mtl
o calda
v -0.263657 0.420428 -3.234721
v -0.263139 0.405830 -3.236375
v -0.229311 0.441333 -3.546059
v -0.262030 0.434926 -3.233470
v -0.258319 0.448765 -3.232670
v -0.252669 0.461414 -3.232352
v -0.245296 0.472387 -3.232528
v -0.236483 0.481261 -3.233192
v -0.226568 0.487697 -3.234317
v -0.215935 0.491446 -3.235860
v -0.204989 0.492365 -3.237763
v -0.194153 0.490418 -3.239952
v -0.183843 0.485681 -3.242343
v -0.174454 0.478334 -3.244844
v -0.166349 0.468661 -3.247359
v -0.159837 0.457033 -3.249791
v -0.155170 0.443897 -3.252047
v -0.152527 0.429758 -3.254041
v -0.152009 0.415159 -3.255694
v -0.153636 0.400662 -3.256945
v -0.157347 0.386823 -3.257745
v -0.162997 0.374174 -3.258063
v -0.170370 0.363201 -3.257887
v -0.179184 0.354327 -3.257224
v -0.189098 0.347891 -3.256099
v -0.199732 0.344142 -3.254555
v -0.210677 0.343223 -3.252652
v -0.221513 0.345170 -3.250463
v -0.231823 0.349907 -3.248072
v -0.241212 0.357254 -3.245571
v -0.249318 0.366927 -3.243057
v -0.255829 0.378555 -3.240624
v -0.260496 0.391691 -3.238368
vn 0.1788 -0.1045 0.9783
vn -0.9935 -0.0227 -0.1111
vn -0.9877 0.1195 -0.1009
vn -0.9601 0.2630 -0.0951
vn -0.9082 0.4080 -0.0937
vn -0.8268 0.5540 -0.0970
vn -0.7095 0.6968 -0.1052
vn -0.5501 0.8267 -0.1181
vn -0.3468 0.9282 -0.1350
vn -0.1092 0.9820 -0.1539
vn 0.1403 0.9750 -0.1725
vn 0.3736 0.9082 -0.1885
vn 0.5697 0.7967 -0.2016
vn 0.7211 0.6595 -0.2123
vn 0.8303 0.5114 -0.2218
vn 0.9036 0.3607 -0.2310
vn 0.9474 0.2110 -0.2407
vn 0.9658 0.0627 -0.2515
vn 0.9609 -0.0851 -0.2635
vn 0.9320 -0.2339 -0.2769
vn 0.8762 -0.3840 -0.2913
vn 0.7879 -0.5343 -0.3060
vn 0.6603 -0.6797 -0.3193
vn 0.4878 -0.8088 -0.3283
vn 0.2711 -0.9045 -0.3291
vn 0.0242 -0.9476 -0.3184
vn -0.2265 -0.9280 -0.2959
vn -0.4526 -0.8514 -0.2650
vn -0.6370 -0.7354 -0.2310
vn -0.7760 -0.5988 -0.1983
vn -0.8746 -0.4543 -0.1693
vn -0.9399 -0.3090 -0.1451
vn -0.9782 -0.1651 -0.1258
vt 0.750000 0.490000
vt 0.250000 0.490000
vt 0.796822 0.485388
vt 0.296822 0.485388
vt 0.250000 0.250000
vt 0.703178 0.485388
vt 0.203178 0.485388
vt 0.658156 0.471731
vt 0.158156 0.471731
vt 0.616663 0.449553
vt 0.116663 0.449553
vt 0.580294 0.419706
vt 0.080294 0.419706
vt 0.550447 0.383337
vt 0.050447 0.383337
vt 0.528269 0.341844
vt 0.028269 0.341844
vt 0.514612 0.296822
vt 0.014612 0.296822
vt 0.510000 0.250000
vt 0.010000 0.250000
vt 0.514612 0.203178
vt 0.014612 0.203178
vt 0.528269 0.158156
vt 0.028269 0.158156
vt 0.550447 0.116663
vt 0.050447 0.116663
vt 0.580294 0.080294
vt 0.080294 0.080294
vt 0.616663 0.050447
vt 0.116663 0.050447
vt 0.658156 0.028269
vt 0.158156 0.028269
vt 0.703178 0.014612
vt 0.203178 0.014612
vt 0.750000 0.010000
vt 0.250000 0.010000
vt 0.796822 0.014612
vt 0.296822 0.014612
vt 0.841844 0.028269
vt 0.341844 0.028269
vt 0.883337 0.050447
vt 0.383337 0.050447
vt 0.919706 0.080294
vt 0.419706 0.080294
vt 0.949553 0.116663
vt 0.449553 0.116663
vt 0.971731 0.158156
vt 0.471731 0.158156
vt 0.985388 0.203178
vt 0.485388 0.203178
vt 0.990000 0.250000
vt 0.490000 0.250000
vt 0.985388 0.296822
vt 0.485388 0.296822
vt 0.971731 0.341844
vt 0.471731 0.341844
vt 0.949553 0.383337
vt 0.449553 0.383337
vt 0.919706 0.419706
vt 0.419706 0.419706
vt 0.883337 0.449553
vt 0.383337 0.449553
vt 0.841844 0.471731
vt 0.341844 0.471731
s 0
f 1/1/1 2/3/1 33/64/1 32/62/1 31/60/1 30/58/1 29/56/1 28/54/1 27/52/1 26/50/1 25/48/1 24/46/1 23/44/1 22/42/1 21/40/1 20/38/1 19/36/1 18/34/1 17/32/1 16/30/1 15/28/1 14/26/1 13/24/1 12/22/1 11/20/1 10/18/1 9/16/1 8/14/1 7/12/1 6/10/1 5/8/1 4/6/1
f 1/2/2 3/5/2 2/4/2
f 4/7/3 3/5/3 1/2/3
f 5/9/4 3/5/4 4/7/4
f 6/11/5 3/5/5 5/9/5
f 7/13/6 3/5/6 6/11/6
f 8/15/7 3/5/7 7/13/7
f 9/17/8 3/5/8 8/15/8
f 10/19/9 3/5/9 9/17/9
f 11/21/10 3/5/10 10/19/10
f 12/23/11 3/5/11 11/21/11
f 13/25/12 3/5/12 12/23/12
f 14/27/13 3/5/13 13/25/13
f 15/29/14 3/5/14 14/27/14
f 16/31/15 3/5/15 15/29/15
f 17/33/16 3/5/16 16/31/16
f 18/35/17 3/5/17 17/33/17
f 19/37/18 3/5/18 18/35/18
f 20/39/19 3/5/19 19/37/19
f 21/41/20 3/5/20 20/39/20
f 22/43/21 3/5/21 21/41/21
f 23/45/22 3/5/22 22/43/22
f 24/47/23 3/5/23 23/45/23
f 25/49/24 3/5/24 24/47/24
f 26/51/25 3/5/25 25/49/25
f 27/53/26 3/5/26 26/51/26
f 28/55/27 3/5/27 27/53/27
f 29/57/28 3/5/28 28/55/28
f 30/59/29 3/5/29 29/57/29
f 31/61/30 3/5/30 30/59/30
f 32/63/31 3/5/31 31/61/31
f 33/65/32 3/5/32 32/63/32
f 2/4/33 3/5/33 33/65/33
