# Blender 3.3.1
# www.blender.org
mtllib pataFE.mtl
o pataFE
v 0.521205 0.075138 -1.160163
v 0.493888 0.075138 -1.172324
v 0.521205 -0.322764 -1.149379
v 0.546382 0.075138 -1.140415
v 0.546382 -0.326024 -1.129632
v 0.568449 0.075138 -1.113839
v 0.568449 -0.327460 -1.103055
v 0.586558 0.075138 -1.081455
v 0.586558 -0.330680 -1.070671
v 0.600015 0.075138 -1.044509
v 0.600015 -0.330680 -1.033725
v 0.608302 0.075138 -1.004420
v 0.608302 -0.330680 -1.004420
v 0.611100 0.075138 -0.962728
v 0.611100 -0.330680 -0.962728
v 0.608302 0.090282 -0.935836
v 0.608302 -0.330680 -0.880416
v 0.600015 0.090282 -0.895747
v 0.600015 -0.330680 -0.840327
v 0.586558 0.090282 -0.858801
v 0.586558 -0.330680 -0.803381
v 0.568449 0.090282 -0.826417
v 0.568449 -0.330680 -0.770997
v 0.546382 0.090282 -0.799840
v 0.546382 -0.330680 -0.744420
v 0.521205 0.090282 -0.780092
v 0.521205 -0.330680 -0.724672
v 0.493888 0.090282 -0.767931
v 0.493888 -0.330680 -0.712511
v 0.465479 0.090282 -0.763825
v 0.465479 -0.330680 -0.708405
v 0.437069 0.090282 -0.767931
v 0.437069 -0.330680 -0.712511
v 0.409752 0.090282 -0.780092
v 0.409752 -0.330680 -0.724672
v 0.384575 0.090282 -0.799840
v 0.384575 -0.330680 -0.744420
v 0.362509 0.090282 -0.826417
v 0.362509 -0.330680 -0.770997
v 0.344399 0.090282 -0.858801
v 0.344399 -0.330680 -0.803381
v 0.330942 0.090282 -0.895747
v 0.330942 -0.330680 -0.840327
v 0.322655 0.090282 -0.935836
v 0.322655 -0.330680 -0.880416
v 0.319857 0.075138 -0.962728
v 0.319857 -0.330680 -0.922107
v 0.322655 0.075138 -1.004420
v 0.322655 -0.330680 -1.004420
v 0.330942 0.075138 -1.044509
v 0.330942 -0.330680 -1.033725
v 0.344399 0.075138 -1.081455
v 0.344399 -0.330680 -1.070671
v 0.362509 0.075138 -1.113839
v 0.362509 -0.327460 -1.103055
v 0.384575 0.075138 -1.140415
v 0.384575 -0.326024 -1.129632
v 0.409752 0.075138 -1.160163
v 0.409752 -0.322764 -1.149379
v 0.437069 0.075138 -1.172324
v 0.437069 -0.322764 -1.161541
v 0.465479 0.075138 -1.176431
v 0.465479 -0.322764 -1.165647
v 0.493888 -0.322764 -1.161541
v 0.521205 -0.127771 -1.160163
v 0.546382 -0.127771 -1.140415
v 0.568449 -0.127771 -1.113839
v 0.586558 -0.127771 -1.081455
v 0.600015 -0.127771 -1.044509
v 0.608302 -0.127771 -1.004420
v 0.611100 -0.127771 -0.962728
v 0.608302 -0.127771 -0.921037
v 0.600015 -0.127771 -0.880948
v 0.586558 -0.127771 -0.844002
v 0.568449 -0.127771 -0.811618
v 0.546382 -0.127771 -0.785042
v 0.521205 -0.127771 -0.765293
v 0.493888 -0.127771 -0.753133
v 0.465479 -0.127771 -0.749026
v 0.437069 -0.127771 -0.753133
v 0.409752 -0.127771 -0.765293
v 0.384575 -0.127771 -0.785042
v 0.362509 -0.127771 -0.811618
v 0.344399 -0.127771 -0.844002
v 0.330942 -0.127771 -0.880948
v 0.322655 -0.127771 -0.921037
v 0.319857 -0.127771 -0.962728
v 0.322655 -0.127771 -1.004420
v 0.330942 -0.127771 -1.044509
v 0.344399 -0.127771 -1.081455
v 0.362509 -0.127771 -1.113839
v 0.384575 -0.127771 -1.140415
v 0.409752 -0.127771 -1.160163
v 0.437069 -0.127771 -1.172324
v 0.465479 -0.127771 -1.176431
v 0.493888 -0.127771 -1.172324
v 0.521205 -0.229226 -1.160163
v 0.546382 -0.229226 -1.140415
v 0.568449 -0.229226 -1.113839
v 0.586558 -0.229226 -1.081455
v 0.600015 -0.229226 -1.044509
v 0.608302 -0.229226 -1.004420
v 0.611100 -0.229226 -0.962728
v 0.608302 -0.229226 -0.870276
v 0.600015 -0.229226 -0.830187
v 0.586558 -0.229226 -0.793241
v 0.568449 -0.229226 -0.760857
v 0.546382 -0.229226 -0.734280
v 0.521205 -0.229226 -0.714532
v 0.493888 -0.229226 -0.702371
v 0.465479 -0.229226 -0.698265
v 0.437069 -0.229226 -0.702371
v 0.409752 -0.229226 -0.714532
v 0.384575 -0.229226 -0.734280
v 0.362509 -0.229226 -0.760857
v 0.344399 -0.229226 -0.793241
v 0.330942 -0.229226 -0.830187
v 0.322655 -0.229226 -0.870276
v 0.319857 -0.229226 -0.911967
v 0.322655 -0.229226 -1.004420
v 0.330942 -0.229226 -1.044509
v 0.344399 -0.229226 -1.081455
v 0.362509 -0.229226 -1.113839
v 0.384575 -0.229226 -1.140415
v 0.409752 -0.229226 -1.160163
v 0.437069 -0.229226 -1.172324
v 0.493888 -0.229226 -1.172324
v 0.465479 -0.229226 -1.176431
v 0.465479 -0.178498 -1.176431
v 0.521205 -0.178498 -1.160163
v 0.546382 -0.178498 -1.140415
v 0.568449 -0.178498 -1.113839
v 0.586558 -0.178498 -1.081455
v 0.600015 -0.178498 -1.044509
v 0.608302 -0.178498 -1.004420
v 0.611100 -0.178498 -0.962728
v 0.608302 -0.178498 -0.907472
v 0.600015 -0.178498 -0.867383
v 0.586558 -0.178498 -0.830437
v 0.568449 -0.178498 -0.798053
v 0.546382 -0.178498 -0.771477
v 0.521205 -0.178498 -0.751729
v 0.493888 -0.178498 -0.739568
v 0.465479 -0.178498 -0.735461
v 0.437069 -0.178498 -0.739568
v 0.409752 -0.178498 -0.751729
v 0.384575 -0.178498 -0.771477
v 0.362509 -0.178498 -0.798053
v 0.344399 -0.178498 -0.830437
v 0.330942 -0.178498 -0.867383
v 0.322655 -0.178498 -0.907472
v 0.319857 -0.178498 -0.949164
v 0.322655 -0.178498 -1.004420
v 0.330942 -0.178498 -1.044509
v 0.344399 -0.178498 -1.081455
v 0.362509 -0.178498 -1.113839
v 0.384575 -0.178498 -1.140415
v 0.409752 -0.178498 -1.160163
v 0.437069 -0.178498 -1.172324
v 0.493888 -0.178498 -1.172324
v 0.521205 -0.279953 -1.160163
v 0.546382 -0.279953 -1.140415
v 0.568449 -0.279953 -1.113839
v 0.586558 -0.279953 -1.081455
v 0.600015 -0.279953 -1.044509
v 0.608302 -0.279953 -1.004420
v 0.611100 -0.279953 -0.962728
v 0.608302 -0.279953 -0.870276
v 0.600015 -0.279953 -0.830187
v 0.586558 -0.279953 -0.793241
v 0.568449 -0.279953 -0.760857
v 0.546382 -0.279953 -0.734280
v 0.521205 -0.279953 -0.714532
v 0.493888 -0.279953 -0.702371
v 0.465479 -0.279953 -0.698265
v 0.437069 -0.279953 -0.702371
v 0.409752 -0.279953 -0.714532
v 0.384575 -0.279953 -0.734280
v 0.362509 -0.279953 -0.760857
v 0.344399 -0.279953 -0.793241
v 0.330942 -0.279953 -0.830187
v 0.322655 -0.279953 -0.870276
v 0.319857 -0.279953 -0.911967
v 0.322655 -0.279953 -1.004420
v 0.330942 -0.279953 -1.044509
v 0.344399 -0.279953 -1.081455
v 0.362509 -0.279953 -1.113839
v 0.384575 -0.279953 -1.140415
v 0.409752 -0.279953 -1.160163
v 0.437069 -0.279953 -1.172324
v 0.493888 -0.279953 -1.172324
v 0.465479 -0.279953 -1.176431
vn -0.0000 0.9989 -0.0470
vn 0.4067 -0.0000 -0.9136
vn 0.6172 -0.0000 -0.7868
vn 0.7694 -0.0000 -0.6388
vn 0.8728 -0.0000 -0.4881
vn 0.9396 -0.0000 -0.3422
vn 0.9793 -0.0000 -0.2024
vn 0.9978 -0.0000 -0.0670
vn 0.9967 0.0028 0.0807
vn 0.9792 0.0137 0.2024
vn 0.9394 0.0232 0.3421
vn 0.8723 0.0331 0.4878
vn 0.7686 0.0433 0.6382
vn 0.6163 0.0533 0.7857
vn 0.4059 0.0619 0.9118
vn 0.1427 0.0670 0.9875
vn -0.1427 0.0670 0.9875
vn -0.4059 0.0619 0.9118
vn -0.6163 0.0533 0.7857
vn -0.7687 0.0433 0.6382
vn -0.8723 0.0331 0.4878
vn -0.9394 0.0232 0.3421
vn -0.9792 0.0137 0.2024
vn -0.9967 0.0028 0.0807
vn -0.9978 -0.0000 -0.0670
vn -0.9793 -0.0000 -0.2024
vn -0.9396 -0.0000 -0.3422
vn -0.8728 -0.0000 -0.4881
vn -0.7694 -0.0000 -0.6388
vn -0.6172 -0.0000 -0.7868
vn -0.4067 -0.0000 -0.9136
vn -0.1431 -0.0000 -0.9897
vn 0.1431 -0.0000 -0.9897
vn -0.0000 -0.9999 -0.0135
vn -0.9983 -0.0077 -0.0576
vn -0.9976 0.0179 0.0670
vn -0.9779 0.0541 0.2021
vn -0.9357 0.0911 0.3408
vn -0.8655 0.1294 0.4840
vn -0.7584 0.1684 0.6297
vn -0.6040 0.2059 0.7700
vn -0.3951 0.2373 0.8875
vn -0.1383 0.2559 0.9568
vn 0.1383 0.2559 0.9568
vn 0.3951 0.2373 0.8875
vn 0.6040 0.2059 0.7700
vn 0.7584 0.1684 0.6297
vn 0.8655 0.1294 0.4840
vn 0.9357 0.0911 0.3408
vn 0.9779 0.0541 0.2021
vn 0.9983 0.0077 0.0576
vn 0.9995 -0.0000 0.0303
vn 0.9793 -0.0000 0.2024
vn 0.9396 -0.0000 0.3422
vn 0.8728 -0.0000 0.4881
vn 0.7694 -0.0000 0.6388
vn 0.6172 -0.0000 0.7868
vn 0.4067 -0.0000 0.9136
vn 0.1430 -0.0000 0.9897
vn -0.1430 -0.0000 0.9897
vn -0.4067 -0.0000 0.9136
vn -0.6172 -0.0000 0.7868
vn -0.7694 -0.0000 0.6388
vn -0.8728 -0.0000 0.4881
vn -0.9396 -0.0000 0.3422
vn -0.9793 -0.0000 0.2024
vn -0.9978 -0.0000 0.0670
vn -0.9995 -0.0000 -0.0303
vn 0.9992 0.0139 0.0379
vn 0.9687 0.1468 0.2002
vn 0.9114 0.2434 0.3319
vn 0.8218 0.3369 0.4595
vn 0.6967 0.4242 0.5785
vn 0.5346 0.4997 0.6815
vn 0.3379 0.5565 0.7590
vn 0.1158 0.5873 0.8010
vn -0.1158 0.5873 0.8010
vn -0.3379 0.5565 0.7590
vn -0.5346 0.4997 0.6815
vn -0.6967 0.4242 0.5785
vn -0.8218 0.3370 0.4595
vn -0.9114 0.2434 0.3319
vn -0.9687 0.1468 0.2002
vn -0.9966 0.0490 0.0669
vn -0.9992 -0.0139 -0.0379
vn 0.1388 -0.2419 -0.9603
vn -0.1388 -0.2419 -0.9603
vn -0.3964 -0.2243 -0.8903
vn -0.5984 -0.1889 -0.7786
vn -0.7592 -0.1462 -0.6343
vn -0.8655 -0.1074 -0.4893
vn -0.9371 -0.0726 -0.3413
vn -0.9723 -0.0247 -0.2322
vn -0.9995 0.0032 -0.0320
vn -0.9977 -0.0134 0.0670
vn -0.9785 -0.0404 0.2023
vn -0.9374 -0.0683 0.3414
vn -0.8687 -0.0971 0.4858
vn -0.7632 -0.1267 0.6336
vn -0.6097 -0.1554 0.7773
vn -0.4001 -0.1796 0.8987
vn -0.1403 -0.1941 0.9709
vn 0.1403 -0.1941 0.9709
vn 0.4001 -0.1796 0.8987
vn 0.6097 -0.1554 0.7773
vn 0.7632 -0.1267 0.6337
vn 0.8687 -0.0971 0.4858
vn 0.9374 -0.0683 0.3414
vn 0.9785 -0.0404 0.2023
vn 0.9995 -0.0032 0.0320
vn 0.9723 -0.0247 -0.2322
vn 0.9371 -0.0726 -0.3413
vn 0.8655 -0.1074 -0.4893
vn 0.7591 -0.1462 -0.6343
vn 0.5984 -0.1889 -0.7786
vn 0.3964 -0.2243 -0.8903
vt 0.341844 0.471731
vt 0.937500 1.000000
vt 0.296822 0.485388
vt 0.968750 1.000000
vt 0.841844 0.471731
vt 0.937500 0.500000
vt 0.383337 0.449553
vt 0.906250 1.000000
vt 0.883337 0.449553
vt 0.906250 0.500000
vt 0.419706 0.419706
vt 0.875000 1.000000
vt 0.919706 0.419706
vt 0.875000 0.500000
vt 0.449553 0.383337
vt 0.843750 1.000000
vt 0.949553 0.383337
vt 0.843750 0.500000
vt 0.471731 0.341844
vt 0.812500 1.000000
vt 0.971731 0.341844
vt 0.812500 0.500000
vt 0.485388 0.296822
vt 0.781250 1.000000
vt 0.985388 0.296822
vt 0.781250 0.500000
vt 0.490000 0.250000
vt 0.750000 1.000000
vt 0.990000 0.250000
vt 0.750000 0.500000
vt 0.485388 0.203178
vt 0.718750 1.000000
vt 0.985388 0.203178
vt 0.718750 0.500000
vt 0.471731 0.158156
vt 0.687500 1.000000
vt 0.971731 0.158156
vt 0.687500 0.500000
vt 0.449553 0.116663
vt 0.656250 1.000000
vt 0.949553 0.116663
vt 0.656250 0.500000
vt 0.419706 0.080294
vt 0.625000 1.000000
vt 0.919706 0.080294
vt 0.625000 0.500000
vt 0.383337 0.050447
vt 0.593750 1.000000
vt 0.883337 0.050447
vt 0.593750 0.500000
vt 0.341844 0.028269
vt 0.562500 1.000000
vt 0.841844 0.028269
vt 0.562500 0.500000
vt 0.296822 0.014612
vt 0.531250 1.000000
vt 0.796822 0.014612
vt 0.531250 0.500000
vt 0.250000 0.010000
vt 0.500000 1.000000
vt 0.750000 0.010000
vt 0.500000 0.500000
vt 0.203178 0.014612
vt 0.468750 1.000000
vt 0.703178 0.014612
vt 0.468750 0.500000
vt 0.158156 0.028269
vt 0.437500 1.000000
vt 0.658156 0.028269
vt 0.437500 0.500000
vt 0.116663 0.050447
vt 0.406250 1.000000
vt 0.616663 0.050447
vt 0.406250 0.500000
vt 0.080294 0.080294
vt 0.375000 1.000000
vt 0.580294 0.080294
vt 0.375000 0.500000
vt 0.050447 0.116663
vt 0.343750 1.000000
vt 0.550447 0.116663
vt 0.343750 0.500000
vt 0.028269 0.158156
vt 0.312500 1.000000
vt 0.528269 0.158156
vt 0.312500 0.500000
vt 0.014612 0.203178
vt 0.281250 1.000000
vt 0.514612 0.203178
vt 0.281250 0.500000
vt 0.010000 0.250000
vt 0.250000 1.000000
vt 0.510000 0.250000
vt 0.250000 0.500000
vt 0.014612 0.296822
vt 0.218750 1.000000
vt 0.514612 0.296822
vt 0.218750 0.500000
vt 0.028269 0.341844
vt 0.187500 1.000000
vt 0.528269 0.341844
vt 0.187500 0.500000
vt 0.050447 0.383337
vt 0.156250 1.000000
vt 0.550447 0.383337
vt 0.156250 0.500000
vt 0.080294 0.419706
vt 0.125000 1.000000
vt 0.580294 0.419706
vt 0.125000 0.500000
vt 0.116663 0.449553
vt 0.093750 1.000000
vt 0.616663 0.449553
vt 0.093750 0.500000
vt 0.158156 0.471731
vt 0.062500 1.000000
vt 0.658156 0.471731
vt 0.062500 0.500000
vt 0.203178 0.485388
vt 0.031250 1.000000
vt 0.703178 0.485388
vt 0.031250 0.500000
vt 0.250000 0.490000
vt 0.000000 1.000000
vt 1.000000 1.000000
vt 0.750000 0.490000
vt 1.000000 0.500000
vt 0.000000 0.500000
vt 0.796822 0.485388
vt 0.968750 0.500000
vt 0.937500 0.750000
vt 0.906250 0.750000
vt 0.875000 0.750000
vt 0.843750 0.750000
vt 0.812500 0.750000
vt 0.781250 0.750000
vt 0.750000 0.750000
vt 0.718750 0.750000
vt 0.687500 0.750000
vt 0.656250 0.750000
vt 0.625000 0.750000
vt 0.593750 0.750000
vt 0.562500 0.750000
vt 0.531250 0.750000
vt 0.500000 0.750000
vt 0.468750 0.750000
vt 0.437500 0.750000
vt 0.406250 0.750000
vt 0.375000 0.750000
vt 0.343750 0.750000
vt 0.312500 0.750000
vt 0.281250 0.750000
vt 0.250000 0.750000
vt 0.218750 0.750000
vt 0.187500 0.750000
vt 0.156250 0.750000
vt 0.125000 0.750000
vt 0.093750 0.750000
vt 0.062500 0.750000
vt 0.031250 0.750000
vt 1.000000 0.750000
vt 0.000000 0.750000
vt 0.968750 0.750000
vt 0.937500 0.625000
vt 0.906250 0.625000
vt 0.875000 0.625000
vt 0.843750 0.625000
vt 0.812500 0.625000
vt 0.781250 0.625000
vt 0.750000 0.625000
vt 0.718750 0.625000
vt 0.687500 0.625000
vt 0.656250 0.625000
vt 0.625000 0.625000
vt 0.593750 0.625000
vt 0.562500 0.625000
vt 0.531250 0.625000
vt 0.500000 0.625000
vt 0.468750 0.625000
vt 0.437500 0.625000
vt 0.406250 0.625000
vt 0.375000 0.625000
vt 0.343750 0.625000
vt 0.312500 0.625000
vt 0.281250 0.625000
vt 0.250000 0.625000
vt 0.218750 0.625000
vt 0.187500 0.625000
vt 0.156250 0.625000
vt 0.125000 0.625000
vt 0.093750 0.625000
vt 0.062500 0.625000
vt 0.031250 0.625000
vt 0.968750 0.625000
vt 0.000000 0.625000
vt 1.000000 0.625000
vt 0.000000 0.687500
vt 1.000000 0.687500
vt 0.937500 0.687500
vt 0.906250 0.687500
vt 0.875000 0.687500
vt 0.843750 0.687500
vt 0.812500 0.687500
vt 0.781250 0.687500
vt 0.750000 0.687500
vt 0.718750 0.687500
vt 0.687500 0.687500
vt 0.656250 0.687500
vt 0.625000 0.687500
vt 0.593750 0.687500
vt 0.562500 0.687500
vt 0.531250 0.687500
vt 0.500000 0.687500
vt 0.468750 0.687500
vt 0.437500 0.687500
vt 0.406250 0.687500
vt 0.375000 0.687500
vt 0.343750 0.687500
vt 0.312500 0.687500
vt 0.281250 0.687500
vt 0.250000 0.687500
vt 0.218750 0.687500
vt 0.187500 0.687500
vt 0.156250 0.687500
vt 0.125000 0.687500
vt 0.093750 0.687500
vt 0.062500 0.687500
vt 0.031250 0.687500
vt 0.968750 0.687500
vt 0.937500 0.562500
vt 0.906250 0.562500
vt 0.875000 0.562500
vt 0.843750 0.562500
vt 0.812500 0.562500
vt 0.781250 0.562500
vt 0.750000 0.562500
vt 0.718750 0.562500
vt 0.687500 0.562500
vt 0.656250 0.562500
vt 0.625000 0.562500
vt 0.593750 0.562500
vt 0.562500 0.562500
vt 0.531250 0.562500
vt 0.500000 0.562500
vt 0.468750 0.562500
vt 0.437500 0.562500
vt 0.406250 0.562500
vt 0.375000 0.562500
vt 0.343750 0.562500
vt 0.312500 0.562500
vt 0.281250 0.562500
vt 0.250000 0.562500
vt 0.218750 0.562500
vt 0.187500 0.562500
vt 0.156250 0.562500
vt 0.125000 0.562500
vt 0.093750 0.562500
vt 0.062500 0.562500
vt 0.031250 0.562500
vt 0.968750 0.562500
vt 1.000000 0.562500
vt 0.000000 0.562500
s 0
f 1/1/1 2/3/1 62/123/1 60/119/1 58/115/1 56/111/1 54/107/1 52/103/1 50/99/1 48/95/1 46/91/1 44/87/1 42/83/1 40/79/1 38/75/1 36/71/1 34/67/1 32/63/1 30/59/1 28/55/1 26/51/1 24/47/1 22/43/1 20/39/1 18/35/1 16/31/1 14/27/1 12/23/1 10/19/1 8/15/1 6/11/1 4/7/1
f 96/163/2 2/4/2 1/2/2 65/131/2
f 65/131/3 1/2/3 4/8/3 66/132/3
f 66/132/4 4/8/4 6/12/4 67/133/4
f 67/133/5 6/12/5 8/16/5 68/134/5
f 68/134/6 8/16/6 10/20/6 69/135/6
f 69/135/7 10/20/7 12/24/7 70/136/7
f 70/136/8 12/24/8 14/28/8 71/137/8
f 71/137/9 14/28/9 16/32/9 72/138/9
f 72/138/10 16/32/10 18/36/10 73/139/10
f 73/139/11 18/36/11 20/40/11 74/140/11
f 74/140/12 20/40/12 22/44/12 75/141/12
f 75/141/13 22/44/13 24/48/13 76/142/13
f 76/142/14 24/48/14 26/52/14 77/143/14
f 77/143/15 26/52/15 28/56/15 78/144/15
f 78/144/16 28/56/16 30/60/16 79/145/16
f 79/145/17 30/60/17 32/64/17 80/146/17
f 80/146/18 32/64/18 34/68/18 81/147/18
f 81/147/19 34/68/19 36/72/19 82/148/19
f 82/148/20 36/72/20 38/76/20 83/149/20
f 83/149/21 38/76/21 40/80/21 84/150/21
f 84/150/22 40/80/22 42/84/22 85/151/22
f 85/151/23 42/84/23 44/88/23 86/152/23
f 86/152/24 44/88/24 46/92/24 87/153/24
f 87/153/25 46/92/25 48/96/25 88/154/25
f 88/154/26 48/96/26 50/100/26 89/155/26
f 89/155/27 50/100/27 52/104/27 90/156/27
f 90/156/28 52/104/28 54/108/28 91/157/28
f 91/157/29 54/108/29 56/112/29 92/158/29
f 92/158/30 56/112/30 58/116/30 93/159/30
f 93/159/31 58/116/31 60/120/31 94/160/31
f 94/160/32 60/120/32 62/124/32 95/162/32
f 95/161/33 62/125/33 2/4/33 96/163/33
f 64/129/34 3/5/34 5/9/34 7/13/34 9/17/34 11/21/34 13/25/34 15/29/34 17/33/34 19/37/34 21/41/34 23/45/34 25/49/34 27/53/34 29/57/34 31/61/34 33/65/34 35/69/34 37/73/34 39/77/34 41/81/34 43/85/34 45/89/34 47/93/34 49/97/34 51/101/34 53/105/34 55/109/34 57/113/34 59/117/34 61/121/34 63/126/34
f 129/198/33 95/161/33 96/163/33 160/229/33
f 159/228/32 94/160/32 95/162/32 129/197/32
f 158/227/31 93/159/31 94/160/31 159/228/31
f 157/226/30 92/158/30 93/159/30 158/227/30
f 156/225/29 91/157/29 92/158/29 157/226/29
f 155/224/28 90/156/28 91/157/28 156/225/28
f 154/223/27 89/155/27 90/156/27 155/224/27
f 153/222/26 88/154/26 89/155/26 154/223/26
f 152/221/35 87/153/35 88/154/35 153/222/35
f 151/220/36 86/152/36 87/153/36 152/221/36
f 150/219/37 85/151/37 86/152/37 151/220/37
f 149/218/38 84/150/38 85/151/38 150/219/38
f 148/217/39 83/149/39 84/150/39 149/218/39
f 147/216/40 82/148/40 83/149/40 148/217/40
f 146/215/41 81/147/41 82/148/41 147/216/41
f 145/214/42 80/146/42 81/147/42 146/215/42
f 144/213/43 79/145/43 80/146/43 145/214/43
f 143/212/44 78/144/44 79/145/44 144/213/44
f 142/211/45 77/143/45 78/144/45 143/212/45
f 141/210/46 76/142/46 77/143/46 142/211/46
f 140/209/47 75/141/47 76/142/47 141/210/47
f 139/208/48 74/140/48 75/141/48 140/209/48
f 138/207/49 73/139/49 74/140/49 139/208/49
f 137/206/50 72/138/50 73/139/50 138/207/50
f 136/205/51 71/137/51 72/138/51 137/206/51
f 135/204/8 70/136/8 71/137/8 136/205/8
f 134/203/7 69/135/7 70/136/7 135/204/7
f 133/202/6 68/134/6 69/135/6 134/203/6
f 132/201/5 67/133/5 68/134/5 133/202/5
f 131/200/4 66/132/4 67/133/4 132/201/4
f 130/199/3 65/131/3 66/132/3 131/200/3
f 160/229/2 96/163/2 65/131/2 130/199/2
f 191/260/2 127/194/2 97/164/2 161/230/2
f 161/230/3 97/164/3 98/165/3 162/231/3
f 162/231/4 98/165/4 99/166/4 163/232/4
f 163/232/5 99/166/5 100/167/5 164/233/5
f 164/233/6 100/167/6 101/168/6 165/234/6
f 165/234/7 101/168/7 102/169/7 166/235/7
f 166/235/8 102/169/8 103/170/8 167/236/8
f 167/236/52 103/170/52 104/171/52 168/237/52
f 168/237/53 104/171/53 105/172/53 169/238/53
f 169/238/54 105/172/54 106/173/54 170/239/54
f 170/239/55 106/173/55 107/174/55 171/240/55
f 171/240/56 107/174/56 108/175/56 172/241/56
f 172/241/57 108/175/57 109/176/57 173/242/57
f 173/242/58 109/176/58 110/177/58 174/243/58
f 174/243/59 110/177/59 111/178/59 175/244/59
f 175/244/60 111/178/60 112/179/60 176/245/60
f 176/245/61 112/179/61 113/180/61 177/246/61
f 177/246/62 113/180/62 114/181/62 178/247/62
f 178/247/63 114/181/63 115/182/63 179/248/63
f 179/248/64 115/182/64 116/183/64 180/249/64
f 180/249/65 116/183/65 117/184/65 181/250/65
f 181/250/66 117/184/66 118/185/66 182/251/66
f 182/251/67 118/185/67 119/186/67 183/252/67
f 183/252/68 119/186/68 120/187/68 184/253/68
f 184/253/26 120/187/26 121/188/26 185/254/26
f 185/254/27 121/188/27 122/189/27 186/255/27
f 186/255/28 122/189/28 123/190/28 187/256/28
f 187/256/29 123/190/29 124/191/29 188/257/29
f 188/257/30 124/191/30 125/192/30 189/258/30
f 189/258/31 125/192/31 126/193/31 190/259/31
f 190/259/32 126/193/32 128/195/32 192/262/32
f 192/261/33 128/196/33 127/194/33 191/260/33
f 127/194/2 160/229/2 130/199/2 97/164/2
f 97/164/3 130/199/3 131/200/3 98/165/3
f 98/165/4 131/200/4 132/201/4 99/166/4
f 99/166/5 132/201/5 133/202/5 100/167/5
f 100/167/6 133/202/6 134/203/6 101/168/6
f 101/168/7 134/203/7 135/204/7 102/169/7
f 102/169/8 135/204/8 136/205/8 103/170/8
f 103/170/69 136/205/69 137/206/69 104/171/69
f 104/171/70 137/206/70 138/207/70 105/172/70
f 105/172/71 138/207/71 139/208/71 106/173/71
f 106/173/72 139/208/72 140/209/72 107/174/72
f 107/174/73 140/209/73 141/210/73 108/175/73
f 108/175/74 141/210/74 142/211/74 109/176/74
f 109/176/75 142/211/75 143/212/75 110/177/75
f 110/177/76 143/212/76 144/213/76 111/178/76
f 111/178/77 144/213/77 145/214/77 112/179/77
f 112/179/78 145/214/78 146/215/78 113/180/78
f 113/180/79 146/215/79 147/216/79 114/181/79
f 114/181/80 147/216/80 148/217/80 115/182/80
f 115/182/81 148/217/81 149/218/81 116/183/81
f 116/183/82 149/218/82 150/219/82 117/184/82
f 117/184/83 150/219/83 151/220/83 118/185/83
f 118/185/84 151/220/84 152/221/84 119/186/84
f 119/186/85 152/221/85 153/222/85 120/187/85
f 120/187/26 153/222/26 154/223/26 121/188/26
f 121/188/27 154/223/27 155/224/27 122/189/27
f 122/189/28 155/224/28 156/225/28 123/190/28
f 123/190/29 156/225/29 157/226/29 124/191/29
f 124/191/30 157/226/30 158/227/30 125/192/30
f 125/192/31 158/227/31 159/228/31 126/193/31
f 126/193/32 159/228/32 129/197/32 128/195/32
f 128/196/33 129/198/33 160/229/33 127/194/33
f 63/127/86 192/261/86 191/260/86 64/130/86
f 61/122/87 190/259/87 192/262/87 63/128/87
f 59/118/88 189/258/88 190/259/88 61/122/88
f 57/114/89 188/257/89 189/258/89 59/118/89
f 55/110/90 187/256/90 188/257/90 57/114/90
f 53/106/91 186/255/91 187/256/91 55/110/91
f 51/102/92 185/254/92 186/255/92 53/106/92
f 49/98/93 184/253/93 185/254/93 51/102/93
f 47/94/94 183/252/94 184/253/94 49/98/94
f 45/90/95 182/251/95 183/252/95 47/94/95
f 43/86/96 181/250/96 182/251/96 45/90/96
f 41/82/97 180/249/97 181/250/97 43/86/97
f 39/78/98 179/248/98 180/249/98 41/82/98
f 37/74/99 178/247/99 179/248/99 39/78/99
f 35/70/100 177/246/100 178/247/100 37/74/100
f 33/66/101 176/245/101 177/246/101 35/70/101
f 31/62/102 175/244/102 176/245/102 33/66/102
f 29/58/103 174/243/103 175/244/103 31/62/103
f 27/54/104 173/242/104 174/243/104 29/58/104
f 25/50/105 172/241/105 173/242/105 27/54/105
f 23/46/106 171/240/106 172/241/106 25/50/106
f 21/42/107 170/239/107 171/240/107 23/46/107
f 19/38/108 169/238/108 170/239/108 21/42/108
f 17/34/109 168/237/109 169/238/109 19/38/109
f 15/30/110 167/236/110 168/237/110 17/34/110
f 13/26/8 166/235/8 167/236/8 15/30/8
f 11/22/111 165/234/111 166/235/111 13/26/111
f 9/18/112 164/233/112 165/234/112 11/22/112
f 7/14/113 163/232/113 164/233/113 9/18/113
f 5/10/114 162/231/114 163/232/114 7/14/114
f 3/6/115 161/230/115 162/231/115 5/10/115
f 64/130/116 191/260/116 161/230/116 3/6/116
